<?xml version="1.0" encoding="utf-8"?>
<!-- Generator: Adobe Illustrator 27.5.0, SVG Export Plug-In . SVG Version: 6.00 Build 0)  -->
<svg version="1.1" xmlns="http://www.w3.org/2000/svg" xmlns:xlink="http://www.w3.org/1999/xlink" x="0px" y="0px"
	 viewBox="0 0 500 500" style="enable-background:new 0 0 500 500;" xml:space="preserve">
<g id="BACKGROUND">
	<rect style="fill:#00AAA9;" width="500" height="500"/>
</g>
<g id="OBJECTS">
	<g>
		<g>
			<g id="XMLID_1_">
				<g>
					<defs>
						<path id="XMLID_4_" d="M30.673,371.817c11.509-19.379,15.241-42.394,9.413-64.166c-7.463-27.882-12.97-56.19-11.856-84.914
							c1.732-44.659,23.659-93.211,58.822-113.361c19.221-11.015,41.265-15.715,62.362-22.476
							c42.029-13.469,81.809-36.619,125.853-39.458c63.51-4.094,124.773,37.834,153.273,94.738
							c21.019,41.967,25.886,90.318,18.848,137.005c-4.084,27.09,2.835,54.471,18.469,76.969c0.34,0.49,0.674,0.985,0.999,1.486
							c8.839,13.604,12.087,31.757,2.657,45.946c-13.965,21.013-48,26.762-71.1,28.974c-29.259,2.802-57.827-3.56-85.207-13.526
							c-38.223-13.913-85.979-19.816-126.155-12.214c-39.466,7.468-76.699,26.895-117.772,23.915
							c-14.724-1.068-30.112-6.602-38.692-19.285C22.207,399.066,23.513,383.874,30.673,371.817z"/>
					</defs>
					<use xlink:href="#XMLID_4_"  style="overflow:visible;fill:#dbada4;"/>
					<clipPath id="XMLID_00000031188300282356104950000014027662099267662978_">
						<use xlink:href="#XMLID_4_"  style="overflow:visible;"/>
					</clipPath>
					<g style="clip-path:url(#XMLID_00000031188300282356104950000014027662099267662978_);">
						<path style="fill:#ecdccc;" d="M39.646,137.713c3.948-13.73,17.539-22.165,30.137-20.609
							c12.598,1.556,23.61,11.74,29.488,24.54c5.879,12.8,7.105,27.862,5.631,42.213c1.144-8.457,9.26-14.28,16.71-13.255
							c7.45,1.024,13.691,7.698,16.516,15.625c2.826,7.927,2.654,16.885,1.122,25.261c15.147-18.162,38.837-26.452,60.311-21.105
							c16.021,3.989,30.394,15.46,39.604,30.868c10.209,17.079,8.639,36.443,12.336,56.005
							c-47.254,31.103-102.107,38.638-156.243,46.392c-23.186,3.321-50.518,24.433-70.468,10.558
							C13.128,274.071,22.818,196.235,39.646,137.713z"/>
						<path style="fill:#ecdccc;" d="M457.083,147.083c-3.948-13.73-17.539-22.165-30.137-20.609
							c-12.598,1.556-23.61,11.74-29.489,24.54c-5.879,12.8-7.105,27.862-5.631,42.213c-1.144-8.457-9.26-14.28-16.71-13.255
							c-7.45,1.024-13.691,7.698-16.516,15.625c-2.826,7.927-2.654,16.885-1.123,25.261c-15.147-18.162-38.837-26.452-60.311-21.105
							c-16.021,3.989-30.394,15.46-39.604,30.868c-10.209,17.079-8.639,36.443-12.336,56.005
							c47.254,31.103,102.107,38.638,156.243,46.392c23.186,3.321,48.415,6.058,68.366-7.817
							C481.498,265.066,473.911,205.605,457.083,147.083z"/>
						<path style="fill:#eab485;" d="M31.837,182.802c3.948-13.73,17.539-22.165,30.137-20.609
							c12.598,1.556,23.61,11.74,29.489,24.54c5.879,12.8,7.105,27.862,5.631,42.213c1.144-8.457,9.26-14.28,16.71-13.255
							c7.45,1.024,13.69,7.698,16.516,15.625c2.826,7.927,2.654,16.885,1.123,25.261c15.147-18.162,38.837-26.452,60.311-21.105
							c16.021,3.989,30.394,15.46,39.604,30.868c10.209,17.079,8.639,36.444,12.336,56.005
							c-47.254,31.103-102.107,38.638-156.243,46.392c-23.186,3.321-50.517,24.433-70.468,10.558
							C5.319,319.16,15.009,241.324,31.837,182.802z"/>
						<path style="fill:#eab485;" d="M449.274,192.172c-3.948-13.73-17.539-22.165-30.137-20.609
							c-12.598,1.556-23.61,11.74-29.489,24.54c-5.879,12.8-7.105,27.862-5.631,42.213c-1.144-8.457-9.26-14.28-16.71-13.255
							c-7.45,1.024-13.69,7.698-16.516,15.625c-2.826,7.927-2.654,16.885-1.122,25.261c-15.147-18.162-38.837-26.452-60.311-21.105
							c-16.02,3.989-30.394,15.46-39.604,30.868c-10.209,17.079-8.639,36.443-12.336,56.005
							c47.254,31.103,102.107,38.638,156.243,46.392c23.186,3.321,48.415,6.058,68.365-7.817
							C473.689,310.155,466.102,250.694,449.274,192.172z"/>
					</g>
					<g style="clip-path:url(#XMLID_00000031188300282356104950000014027662099267662978_);">
						<g>
							<g>
								<g>
									<g>
										<g id="XMLID_5_">
											<g>
												<path style="fill:#060200;" d="M128.762,298.269H46.105c-0.276,0-0.5-0.224-0.5-0.5c0-0.276,0.224-0.5,0.5-0.5h82.657
													c0.276,0,0.5,0.224,0.5,0.5C129.262,298.045,129.039,298.269,128.762,298.269z"/>
											</g>
											<path id="XMLID_14_" style="fill:#146c73;" d="M128.125,292.224c-2.575-5.885-5.601-11.52-9.033-16.822
												c1.375,0.3,2.804,0.599,4.162,0.214c1.358-0.385,2.625-1.664,2.638-3.241c0.008-1.031-0.498-1.966-0.988-2.837
												c-3.64-6.474-7.299-12.935-10.976-19.381c1.958,0.127,4.474-0.154,5.046-2.266c0.357-1.319-0.292-2.692-0.929-3.871
												c-3.5-6.472-7.338-12.712-11.486-18.678c1.872,1.312,4.351-1.225,4.268-3.705c-0.083-2.48-1.693-4.513-3.212-6.313
												c-6.529-7.739-14.94-22.152-19.572-23.314c-6.189,0-12.945,15.487-19.487,23.147c-1.501,1.757-3.187,3.792-3.295,6.371
												c-0.105,2.512,2.368,5.114,4.287,3.826c-4.171,5.96-8.021,12.204-11.521,18.687c-0.619,1.147-1.251,2.473-0.93,3.765
												c0.535,2.154,3.09,2.477,5.075,2.368c-3.444,6.023-6.887,12.046-10.331,18.069c-0.975,1.705-1.979,3.832-1.173,5.645
												c1.041,2.343,4.038,2.094,6.303,1.493c-3.284,5.2-6.243,10.66-8.848,16.327c-0.523,1.138-1.046,2.395-0.822,3.65
												c0.467,2.609,3.509,3.181,5.873,3.172c10.403-0.043,20.805-0.085,31.207-0.128v13.643c0,2.292,1.651,4.15,3.687,4.15h0
												c2.036,0,3.687-1.858,3.687-4.15v-13.673c10.755-0.044,21.51-0.088,32.265-0.132c1.849-0.008,4.152-0.361,4.743-2.333
												C129.127,294.689,128.63,293.377,128.125,292.224z"/>
										</g>
										<g>
											<g>
												<path style="fill:#0E0603;" d="M70.24,226.326c-0.894,0-1.785-0.003-2.678-0.008c-0.276-0.001-0.498-0.227-0.497-0.503
													c0.001-0.275,0.225-0.497,0.5-0.497c0.001,0,0.002,0,0.003,0c13.265,0.084,26.699-0.429,39.922-1.511
													c0.275-0.02,0.517,0.183,0.539,0.458c0.022,0.275-0.183,0.516-0.458,0.539C95.209,225.814,82.663,226.326,70.24,226.326
													z"/>
											</g>
											<g>
												<path style="fill:#0E0603;" d="M87.18,253.644c-8.883,0-17.761-0.85-26.414-2.55c-0.271-0.054-0.447-0.316-0.394-0.587
													c0.053-0.271,0.311-0.45,0.587-0.394c17.959,3.531,36.912,3.364,54.806-0.478c0.269-0.061,0.536,0.114,0.594,0.384
													c0.058,0.27-0.114,0.536-0.384,0.594C106.569,252.632,96.872,253.644,87.18,253.644z"/>
											</g>
											<g>
												<path style="fill:#0E0603;" d="M84.797,276.731c-10.298,0-20.588-0.301-30.82-0.902
													c-0.276-0.016-0.486-0.253-0.47-0.528c0.016-0.275,0.257-0.503,0.528-0.47c23.137,1.36,46.585,1.179,69.694-0.541
													c0.278-0.021,0.515,0.187,0.536,0.462c0.021,0.275-0.186,0.516-0.461,0.536
													C110.871,276.25,97.829,276.731,84.797,276.731z"/>
											</g>
										</g>
									</g>
								</g>
							</g>
							<g>
								<g>
									<g>
										<g id="XMLID_6_">
											<g>
												<path style="fill:#060200;" d="M223.032,273.728l-82.648,1.244c-0.276,0.004-0.503-0.216-0.507-0.492
													c-0.004-0.276,0.216-0.503,0.492-0.507l82.648-1.244c0.276-0.004,0.503,0.216,0.507,0.492
													C223.529,273.497,223.308,273.724,223.032,273.728z"/>
											</g>
											<path id="XMLID_15_" style="fill:#146c73;" d="M221.759,268.345c-2.575-5.885-5.601-11.52-9.033-16.822
												c1.375,0.3,2.804,0.599,4.162,0.214c1.358-0.385,2.625-1.663,2.638-3.241c0.008-1.031-0.498-1.966-0.988-2.837
												c-3.64-6.474-7.299-12.934-10.977-19.381c1.958,0.127,4.474-0.154,5.046-2.266c0.357-1.32-0.292-2.692-0.93-3.871
												c-3.5-6.472-7.338-12.712-11.486-18.678c1.872,1.311,4.351-1.225,4.267-3.705c-0.083-2.48-1.693-4.513-3.212-6.313
												c-6.529-7.739-14.94-22.152-19.572-23.314c-6.189,0-12.945,15.487-19.486,23.146c-1.501,1.757-3.187,3.792-3.295,6.371
												c-0.105,2.512,2.368,5.114,4.287,3.826c-4.171,5.96-8.021,12.204-11.521,18.687c-0.619,1.147-1.251,2.473-0.93,3.765
												c0.535,2.154,3.09,2.477,5.074,2.368c-3.443,6.023-6.887,12.046-10.331,18.069c-0.975,1.705-1.979,3.832-1.173,5.645
												c1.042,2.342,4.038,2.094,6.303,1.493c-3.284,5.2-6.243,10.66-8.848,16.327c-0.523,1.138-1.046,2.395-0.822,3.65
												c0.467,2.609,3.509,3.181,5.873,3.172c10.403-0.043,20.805-0.085,31.207-0.128v13.643c0,2.292,1.651,4.15,3.687,4.15l0,0
												c2.036,0,3.687-1.858,3.687-4.15v-13.673c10.755-0.044,21.51-0.088,32.265-0.132c1.849-0.008,4.152-0.361,4.743-2.333
												C222.761,270.81,222.263,269.498,221.759,268.345z"/>
										</g>
										<g>
											<g>
												<path style="fill:#0E0603;" d="M163.874,202.447c-0.894,0-1.785-0.002-2.678-0.008
													c-0.276-0.001-0.499-0.227-0.497-0.503c0.002-0.275,0.225-0.497,0.5-0.497c0.001,0,0.002,0,0.003,0
													c13.265,0.084,26.699-0.429,39.922-1.511c0.275-0.021,0.517,0.183,0.539,0.458c0.023,0.275-0.183,0.516-0.458,0.539
													C188.843,201.935,176.296,202.447,163.874,202.447z"/>
											</g>
											<g>
												<path style="fill:#0E0603;" d="M180.813,229.764c-8.883,0-17.761-0.85-26.414-2.55c-0.27-0.054-0.447-0.316-0.394-0.587
													c0.053-0.271,0.311-0.45,0.587-0.394c17.959,3.531,36.912,3.364,54.806-0.478c0.269-0.061,0.536,0.114,0.594,0.384
													c0.058,0.27-0.114,0.536-0.384,0.594C200.203,228.753,190.506,229.764,180.813,229.764z"/>
											</g>
											<g>
												<path style="fill:#0E0603;" d="M178.43,252.852c-10.298,0-20.588-0.301-30.82-0.902
													c-0.276-0.016-0.486-0.253-0.47-0.528c0.016-0.275,0.257-0.503,0.528-0.47c23.137,1.36,46.585,1.179,69.694-0.541
													c0.278-0.021,0.515,0.186,0.536,0.462c0.021,0.275-0.186,0.516-0.462,0.536
													C204.504,252.371,191.462,252.852,178.43,252.852z"/>
											</g>
										</g>
									</g>
								</g>
							</g>
							<g>
								<g>
									<g>
										<defs>
											<path id="SVGID_1_" d="M356.929,271.302c-2.575-5.885-5.601-11.52-9.033-16.822c1.375,0.3,2.804,0.599,4.162,0.214
												c1.358-0.385,2.625-1.663,2.638-3.241c0.008-1.031-0.498-1.966-0.988-2.838c-3.64-6.474-7.299-12.934-10.977-19.381
												c1.958,0.127,4.474-0.154,5.046-2.266c0.358-1.319-0.292-2.692-0.929-3.871c-3.5-6.472-7.338-12.712-11.487-18.678
												c1.872,1.312,4.351-1.225,4.268-3.705c-0.084-2.48-1.693-4.513-3.212-6.313c-6.529-7.739-14.94-22.152-19.572-23.314
												c-6.189,0-12.945,15.487-19.486,23.146c-1.501,1.757-3.187,3.792-3.295,6.371c-0.105,2.512,2.368,5.114,4.287,3.826
												c-4.171,5.96-8.021,12.204-11.521,18.687c-0.619,1.147-1.251,2.473-0.93,3.765c0.535,2.154,3.09,2.477,5.075,2.368
												c-3.444,6.023-6.887,12.046-10.331,18.069c-0.975,1.705-1.979,3.832-1.173,5.645c1.042,2.342,4.038,2.094,6.303,1.493
												c-3.284,5.2-6.243,10.66-8.848,16.327c-0.523,1.138-1.046,2.395-0.822,3.65c0.467,2.609,3.509,3.181,5.873,3.172
												c10.402-0.043,20.805-0.085,31.207-0.128v13.643c0,2.292,1.651,4.15,3.687,4.15h0c2.036,0,3.686-1.858,3.686-4.15
												v-13.673c10.755-0.044,21.51-0.088,32.265-0.132c1.849-0.008,4.152-0.361,4.743-2.333
												C357.931,273.768,357.434,272.455,356.929,271.302z"/>
										</defs>
										<use xlink:href="#SVGID_1_"  style="overflow:visible;fill:#146c73;"/>
										<clipPath id="SVGID_00000082348133742696741540000009159401986236095163_">
											<use xlink:href="#SVGID_1_"  style="overflow:visible;"/>
										</clipPath>
										<g style="clip-path:url(#SVGID_00000082348133742696741540000009159401986236095163_);">
											<g>
												<path style="fill:#0E0603;" d="M299.044,205.404c-0.894,0-1.785-0.003-2.678-0.008
													c-0.276-0.001-0.498-0.227-0.497-0.503c0.001-0.275,0.225-0.497,0.5-0.497c0.001,0,0.002,0,0.003,0
													c13.265,0.084,26.699-0.429,39.922-1.511c0.275-0.02,0.517,0.183,0.539,0.458c0.022,0.275-0.183,0.516-0.458,0.539
													C324.013,204.893,311.467,205.404,299.044,205.404z"/>
											</g>
											<g>
												<path style="fill:#0E0603;" d="M315.984,232.722c-8.883,0-17.761-0.85-26.414-2.55c-0.27-0.054-0.447-0.316-0.394-0.587
													s0.31-0.45,0.587-0.394c17.96,3.531,36.912,3.364,54.806-0.478c0.269-0.061,0.536,0.114,0.594,0.384
													c0.058,0.27-0.114,0.536-0.384,0.594C335.373,231.71,325.676,232.722,315.984,232.722z"/>
											</g>
											<g>
												<path style="fill:#0E0603;" d="M313.601,255.81c-10.298,0-20.588-0.301-30.82-0.902
													c-0.276-0.016-0.486-0.253-0.47-0.528c0.016-0.275,0.257-0.503,0.528-0.47c23.137,1.36,46.585,1.179,69.694-0.541
													c0.278-0.021,0.515,0.187,0.536,0.462c0.021,0.275-0.186,0.516-0.462,0.536
													C339.675,255.328,326.633,255.81,313.601,255.81z"/>
											</g>
										</g>
									</g>
								</g>
							</g>
							<g>
								<g>
									<g>
										<g id="XMLID_8_">
											<g>
												<path style="fill:#060200;" d="M445.957,296.323H363.3c-0.276,0-0.5-0.224-0.5-0.5s0.224-0.5,0.5-0.5h82.657
													c0.276,0,0.5,0.224,0.5,0.5S446.234,296.323,445.957,296.323z"/>
											</g>
											<path id="XMLID_16_" style="fill:#146c73;" d="M447.508,290.107c-2.575-5.885-5.601-11.52-9.033-16.822
												c1.375,0.3,2.804,0.599,4.162,0.214c1.358-0.385,2.625-1.664,2.638-3.241c0.008-1.031-0.498-1.966-0.988-2.837
												c-3.64-6.474-7.299-12.935-10.977-19.381c1.958,0.127,4.474-0.154,5.046-2.266c0.358-1.32-0.292-2.692-0.929-3.871
												c-3.5-6.472-7.338-12.712-11.486-18.678c1.872,1.312,4.351-1.225,4.268-3.705c-0.083-2.48-1.693-4.513-3.212-6.313
												c-6.529-7.739-14.94-22.152-19.572-23.314c-6.189,0-12.945,15.487-19.487,23.147c-1.501,1.757-3.187,3.792-3.295,6.371
												c-0.105,2.512,2.368,5.115,4.287,3.826c-4.171,5.96-8.021,12.204-11.521,18.687c-0.619,1.147-1.251,2.473-0.93,3.765
												c0.535,2.154,3.09,2.477,5.075,2.368c-3.444,6.023-6.887,12.046-10.331,18.069c-0.975,1.705-1.979,3.832-1.173,5.645
												c1.041,2.343,4.038,2.094,6.302,1.493c-3.284,5.2-6.243,10.66-8.848,16.327c-0.523,1.138-1.046,2.395-0.822,3.65
												c0.467,2.609,3.509,3.181,5.873,3.172c10.402-0.043,20.805-0.085,31.207-0.128v13.643c0,2.292,1.651,4.15,3.687,4.15h0
												c2.036,0,3.686-1.858,3.686-4.15v-13.673c10.755-0.044,21.51-0.088,32.265-0.132c1.849-0.008,4.152-0.361,4.743-2.333
												C448.51,292.572,448.012,291.26,447.508,290.107z"/>
										</g>
										<g>
											<g>
												<path style="fill:#0E0603;" d="M389.623,224.208c-0.894,0-1.785-0.002-2.678-0.008
													c-0.276-0.001-0.499-0.227-0.497-0.503c0.001-0.275,0.225-0.497,0.5-0.497c0.001,0,0.002,0,0.003,0
													c13.265,0.084,26.699-0.429,39.922-1.511c0.275-0.021,0.517,0.183,0.539,0.458c0.022,0.275-0.183,0.516-0.458,0.539
													C414.592,223.697,402.045,224.208,389.623,224.208z"/>
											</g>
											<g>
												<path style="fill:#0E0603;" d="M406.563,251.526c-8.883,0-17.761-0.85-26.414-2.55
													c-0.271-0.054-0.447-0.316-0.394-0.587c0.053-0.271,0.311-0.45,0.587-0.394c17.96,3.531,36.912,3.364,54.806-0.478
													c0.269-0.061,0.536,0.114,0.594,0.384c0.058,0.27-0.114,0.536-0.384,0.594
													C425.952,250.515,416.255,251.526,406.563,251.526z"/>
											</g>
											<g>
												<path style="fill:#0E0603;" d="M404.18,274.614c-10.298,0-20.588-0.301-30.82-0.902
													c-0.276-0.016-0.486-0.253-0.47-0.528c0.016-0.275,0.257-0.503,0.528-0.47c23.137,1.36,46.585,1.179,69.694-0.541
													c0.278-0.022,0.515,0.186,0.536,0.462c0.02,0.275-0.186,0.516-0.461,0.536
													C430.253,274.133,417.211,274.614,404.18,274.614z"/>
											</g>
										</g>
									</g>
								</g>
							</g>
						</g>
						<path style="opacity:0.39;fill:#52847B;" d="M66.405,367.117c-3.31,3.446-5.27,8.818-2.892,12.928
							c6.043,10.438,30.002,4.426,39.015,3.42c14.875-1.661,29.546-4.757,44.302-7.195c51.507-8.51,104.28-9.315,156.023-2.378
							c44.745,5.998,91.26,17.596,134.018,3.112c5.404-1.831,11.415-4.945,12.356-10.573c0.785-4.7-2.402-9.115-5.831-12.424
							c-11.984-11.564-28.738-17.121-45.321-18.653c-16.583-1.532-33.257,0.603-49.802,2.501
							c-39.111,4.488-78.372,7.673-117.695,9.549c-39.18,1.869-78.613-0.299-117.706,1.718c-15.592,0.819-34.687,6.474-46.14,17.666
							C66.621,366.895,66.512,367.005,66.405,367.117z"/>
						<path style="fill:#146c73;" d="M10.84,348.299c3.236-13.071,20.038-19.426,32.601-14.582
							c12.563,4.845,20.498,17.86,22.975,31.095c2.477,13.235,0.411,26.85-1.657,40.155c1.988-9.793,12.365-17.077,22.25-15.62
							c9.886,1.457,17.719,11.425,16.798,21.375c4.714-12.543,21.084-19.127,33.17-13.34c12.086,5.786,17.222,22.666,10.407,34.203
							c-8.787,0-18.939-0.079-27.726-0.079H12.182L10.84,348.299z"/>
						<path style="fill:#146c73;" d="M487.458,354.858c-3.236-13.071-20.038-19.426-32.601-14.582
							c-12.563,4.845-20.498,17.86-22.975,31.095c-2.477,13.235-0.411,26.85,1.657,40.155c-1.988-9.793-12.365-17.077-22.25-15.62
							c-9.886,1.457-17.719,11.425-16.798,21.375c-4.714-12.543-21.084-19.127-33.17-13.34
							c-12.086,5.786-17.222,22.666-10.408,34.203c8.787,0,18.939-0.079,27.726-0.079h107.476L487.458,354.858z"/>
						<g>
							<g>
								<path style="fill:#191614;" d="M99.308,431.121c-0.066,0-0.134-0.014-0.199-0.042c-0.253-0.11-0.369-0.404-0.259-0.657
									c1.051-2.413,1.027-5.335-0.064-8.019c-1.092-2.684-3.116-4.792-5.553-5.785c-2.437-0.993-5.358-0.9-8.015,0.256
									c-2.656,1.156-4.716,3.23-5.651,5.69c-0.077,0.203-0.276,0.335-0.498,0.321c-0.218-0.014-0.403-0.167-0.455-0.38
									c-0.897-3.639-2.551-8.77-6.546-11.3c-2.022-1.281-4.937-1.507-7.252-0.559c-1.309,0.535-2.292,1.385-2.86,2.448
									c-0.127,0.415-0.279,0.823-0.455,1.223c-0.104,0.236-0.373,0.355-0.616,0.272c-0.245-0.082-0.387-0.337-0.329-0.588
									c0.106-0.457,0.266-0.892,0.474-1.299c1.412-4.735-0.541-10.381-4.71-13.087c-4.533-2.941-11.169-2.077-14.795,1.928
									c-0.153,0.169-0.403,0.214-0.605,0.105c-0.202-0.106-0.306-0.338-0.252-0.56c1.508-6.194,3.068-12.6,2.314-19.027
									c-0.818-6.97-4.745-12.857-10.005-14.999c-3.066-1.249-6.888-0.97-9.976,0.729c-2.58,1.417-4.252,3.594-4.71,6.129
									c-0.049,0.272-0.311,0.448-0.581,0.403c-0.272-0.049-0.452-0.31-0.403-0.581c0.513-2.837,2.364-5.263,5.213-6.828
									c3.345-1.841,7.498-2.138,10.834-0.778c5.593,2.277,9.762,8.482,10.622,15.808c0.706,6.011-0.599,12.171-1.938,17.742
									c4.085-3.314,10.386-3.794,14.827-0.909c3.944,2.56,6.063,7.54,5.534,12.182c0.572-0.501,1.256-0.919,2.038-1.239
									c2.642-1.081,5.847-0.832,8.166,0.64c3.813,2.414,5.616,6.914,6.629,10.557c1.184-2.136,3.159-3.903,5.586-4.96
									c2.903-1.263,6.108-1.357,8.791-0.265c2.685,1.094,4.909,3.402,6.102,6.334c1.193,2.932,1.213,6.137,0.055,8.794
									C99.685,431.009,99.501,431.121,99.308,431.121z"/>
							</g>
							<g>
								<path style="fill:#191614;" d="M398.348,440.069c0.066,0,0.134-0.014,0.199-0.042c0.253-0.11,0.369-0.404,0.259-0.657
									c-1.051-2.413-1.027-5.335,0.064-8.019c1.092-2.684,3.116-4.792,5.553-5.785c2.438-0.993,5.358-0.9,8.015,0.256
									c2.656,1.156,4.716,3.229,5.651,5.69c0.077,0.203,0.276,0.335,0.497,0.321c0.218-0.014,0.403-0.167,0.455-0.38
									c0.897-3.639,2.551-8.77,6.546-11.3c2.022-1.281,4.937-1.507,7.252-0.559c1.309,0.535,2.293,1.385,2.86,2.448
									c0.127,0.415,0.279,0.823,0.455,1.223c0.104,0.236,0.372,0.355,0.616,0.272c0.245-0.082,0.387-0.337,0.329-0.588
									c-0.106-0.457-0.266-0.892-0.474-1.299c-1.412-4.735,0.541-10.381,4.71-13.087c4.533-2.941,11.169-2.077,14.795,1.928
									c0.153,0.169,0.403,0.214,0.605,0.105c0.202-0.106,0.306-0.338,0.251-0.559c-1.508-6.194-3.068-12.6-2.314-19.027
									c0.818-6.97,4.745-12.857,10.005-14.999c3.066-1.249,6.888-0.97,9.976,0.729c2.58,1.417,4.252,3.594,4.71,6.129
									c0.049,0.272,0.311,0.448,0.581,0.403c0.272-0.049,0.452-0.31,0.403-0.581c-0.513-2.837-2.364-5.263-5.213-6.828
									c-3.345-1.841-7.498-2.138-10.834-0.778c-5.593,2.277-9.762,8.482-10.622,15.808c-0.706,6.011,0.599,12.171,1.938,17.742
									c-4.085-3.314-10.386-3.794-14.827-0.909c-3.944,2.56-6.064,7.54-5.534,12.182c-0.572-0.501-1.256-0.919-2.038-1.239
									c-2.642-1.081-5.847-0.832-8.166,0.64c-3.813,2.414-5.616,6.914-6.629,10.557c-1.184-2.136-3.159-3.903-5.586-4.96
									c-2.903-1.263-6.108-1.357-8.791-0.265c-2.685,1.094-4.909,3.402-6.102,6.334c-1.193,2.932-1.213,6.137-0.055,8.794
									C397.971,439.956,398.154,440.069,398.348,440.069z"/>
							</g>
						</g>
					</g>
					<g style="clip-path:url(#XMLID_00000031188300282356104950000014027662099267662978_);">
						<g>
							<path style="fill:#146c73;" d="M-0.916,355.635c70.977-48.321,158.259-75.685,246.265-77.207
								c88.006-1.522,176.325,22.804,249.192,68.637c-6.235,5.762-11.265,14.684-17.5,20.447
								c16.752,8.868,30.565,23.051,36.501,40.082c5.936,17.031,3.353,36.832-8.369,51.047
								c-10.793,13.089-27.913,20.402-45.09,24.584c-88.608,21.572-182.205-28.181-272.39-13.265
								c-27.594,4.564-53.604,15.038-80.619,21.97c-27.015,6.931-56.597,10.145-82.547,0.314
								c-25.95-9.83-46.248-36.009-40.012-61.374c4.728-19.232,22.429-32.982,39.08-45.24
								C16.501,374.909,9.762,363.386-0.916,355.635z"/>
						</g>
						<g>
							<g>
								<g>
									<path style="fill:#191614;" d="M86.715,322.506c0.004-0.093-0.017-0.179-0.063-0.26c-0.029-0.084-0.079-0.156-0.15-0.217
										c-0.126-0.117-0.333-0.205-0.514-0.198c-0.188,0.008-0.383,0.065-0.514,0.198c-0.121,0.122-0.236,0.304-0.213,0.477
										c0.053,0.393,0.105,0.785,0.158,1.178c-0.004,0.093,0.017,0.179,0.063,0.26c0.029,0.084,0.079,0.156,0.15,0.217
										c0.126,0.117,0.333,0.205,0.514,0.198c0.188-0.008,0.383-0.065,0.514-0.198c0.121-0.122,0.236-0.304,0.213-0.477
										C86.82,323.291,86.768,322.898,86.715,322.506z"/>
								</g>
								<g>
									<path style="fill:#191614;" d="M88.709,321.442c-0.126-0.117-0.333-0.205-0.514-0.198
										c-0.188,0.008-0.383,0.065-0.514,0.198c-0.131,0.132-0.213,0.294-0.213,0.477v1.325c0,0.173,0.081,0.355,0.213,0.477
										c0.126,0.117,0.333,0.205,0.514,0.198c0.188-0.008,0.383-0.065,0.514-0.198c0.13-0.132,0.213-0.294,0.213-0.477v-1.325
										C88.922,321.746,88.841,321.564,88.709,321.442z"/>
								</g>
								<g>
									<path style="fill:#191614;" d="M91.405,321.736c-0.126-0.117-0.333-0.205-0.514-0.198
										c-0.188,0.008-0.383,0.065-0.514,0.198c-0.131,0.132-0.213,0.294-0.213,0.477v1.325c0,0.173,0.081,0.355,0.213,0.477
										c0.126,0.117,0.333,0.205,0.514,0.198c0.188-0.008,0.383-0.065,0.514-0.198c0.13-0.132,0.213-0.294,0.213-0.477v-1.325
										C91.618,322.04,91.537,321.858,91.405,321.736z"/>
								</g>
							</g>
							<g>
								<g>
									<path style="fill:#191614;" d="M56.763,346.428c0.004-0.093-0.017-0.18-0.063-0.26c-0.029-0.084-0.079-0.156-0.15-0.217
										c-0.126-0.117-0.333-0.205-0.514-0.197c-0.188,0.008-0.383,0.065-0.514,0.197c-0.121,0.122-0.236,0.304-0.213,0.477
										c0.053,0.392,0.105,0.785,0.158,1.177c-0.004,0.093,0.017,0.18,0.063,0.26c0.029,0.084,0.079,0.156,0.15,0.217
										c0.126,0.117,0.333,0.205,0.514,0.198c0.188-0.008,0.383-0.065,0.514-0.198c0.121-0.122,0.236-0.304,0.213-0.477
										C56.868,347.213,56.815,346.821,56.763,346.428z"/>
								</g>
								<g>
									<path style="fill:#191614;" d="M58.757,345.364c-0.126-0.117-0.333-0.205-0.514-0.198
										c-0.188,0.008-0.383,0.065-0.514,0.198c-0.13,0.132-0.213,0.294-0.213,0.477v1.325c0,0.173,0.081,0.354,0.213,0.477
										c0.126,0.117,0.333,0.205,0.514,0.198c0.188-0.008,0.383-0.065,0.514-0.198c0.131-0.132,0.213-0.294,0.213-0.477v-1.325
										C58.97,345.668,58.889,345.486,58.757,345.364z"/>
								</g>
								<g>
									<path style="fill:#191614;" d="M61.453,345.658c-0.126-0.117-0.333-0.205-0.514-0.197
										c-0.188,0.008-0.383,0.065-0.514,0.197c-0.131,0.132-0.213,0.294-0.213,0.477v1.325c0,0.173,0.081,0.354,0.213,0.477
										c0.126,0.117,0.333,0.205,0.514,0.197c0.188-0.008,0.383-0.065,0.514-0.197c0.131-0.132,0.213-0.294,0.213-0.477v-1.325
										C61.665,345.962,61.584,345.781,61.453,345.658z"/>
								</g>
							</g>
							<g>
								<g>
									<path style="fill:#191614;" d="M145.216,388.597c0.004-0.093-0.017-0.18-0.063-0.26c-0.029-0.084-0.079-0.156-0.15-0.217
										c-0.126-0.117-0.333-0.205-0.514-0.198c-0.188,0.008-0.383,0.065-0.514,0.198c-0.121,0.122-0.236,0.304-0.213,0.477
										c0.053,0.392,0.105,0.785,0.158,1.177c-0.004,0.093,0.017,0.18,0.063,0.26c0.029,0.084,0.079,0.156,0.15,0.217
										c0.126,0.117,0.333,0.205,0.514,0.198c0.188-0.008,0.383-0.065,0.514-0.198c0.121-0.122,0.236-0.304,0.213-0.477
										C145.321,389.382,145.269,388.99,145.216,388.597z"/>
								</g>
								<g>
									<path style="fill:#191614;" d="M147.21,387.533c-0.126-0.117-0.333-0.205-0.514-0.197
										c-0.188,0.008-0.383,0.065-0.514,0.197c-0.131,0.132-0.213,0.294-0.213,0.477v1.325c0,0.173,0.081,0.354,0.213,0.477
										c0.126,0.117,0.333,0.205,0.514,0.197c0.188-0.008,0.383-0.065,0.514-0.197c0.13-0.132,0.213-0.294,0.213-0.477v-1.325
										C147.423,387.837,147.342,387.655,147.21,387.533z"/>
								</g>
								<g>
									<path style="fill:#191614;" d="M149.906,387.827c-0.126-0.117-0.333-0.205-0.514-0.197
										c-0.188,0.008-0.383,0.065-0.514,0.197c-0.131,0.132-0.213,0.294-0.213,0.477v1.325c0,0.173,0.081,0.354,0.213,0.477
										c0.126,0.117,0.333,0.205,0.514,0.197c0.188-0.008,0.383-0.065,0.514-0.197c0.131-0.132,0.213-0.294,0.213-0.477v-1.325
										C150.119,388.131,150.038,387.95,149.906,387.827z"/>
								</g>
							</g>
							<g>
								<g>
									<path style="fill:#191614;" d="M209.819,431.811c0.004-0.093-0.017-0.18-0.063-0.26c-0.029-0.084-0.079-0.156-0.15-0.217
										c-0.126-0.117-0.333-0.205-0.514-0.198c-0.188,0.008-0.383,0.065-0.514,0.198c-0.121,0.122-0.236,0.304-0.213,0.477
										c0.053,0.393,0.105,0.785,0.158,1.178c-0.004,0.093,0.017,0.179,0.063,0.26c0.029,0.084,0.079,0.156,0.15,0.217
										c0.126,0.117,0.333,0.205,0.514,0.198c0.188-0.008,0.383-0.065,0.514-0.198c0.121-0.122,0.236-0.304,0.213-0.477
										C209.924,432.596,209.872,432.203,209.819,431.811z"/>
								</g>
								<g>
									<path style="fill:#191614;" d="M211.813,430.747c-0.126-0.117-0.333-0.205-0.514-0.198
										c-0.188,0.008-0.383,0.065-0.514,0.198c-0.13,0.132-0.213,0.294-0.213,0.477v1.325c0,0.173,0.081,0.355,0.213,0.477
										c0.126,0.117,0.333,0.205,0.514,0.198c0.188-0.008,0.383-0.065,0.514-0.198c0.13-0.132,0.213-0.294,0.213-0.477v-1.325
										C212.026,431.051,211.945,430.869,211.813,430.747z"/>
								</g>
								<g>
									<path style="fill:#191614;" d="M214.509,431.041c-0.126-0.117-0.333-0.205-0.514-0.198
										c-0.188,0.008-0.383,0.065-0.514,0.198c-0.13,0.132-0.213,0.294-0.213,0.477v1.325c0,0.173,0.081,0.355,0.213,0.477
										c0.126,0.117,0.333,0.205,0.514,0.198c0.188-0.008,0.383-0.065,0.514-0.198c0.13-0.132,0.213-0.294,0.213-0.477v-1.325
										C214.722,431.345,214.64,431.163,214.509,431.041z"/>
								</g>
							</g>
							<g>
								<g>
									<path style="fill:#191614;" d="M297.285,445.471c0.004-0.093-0.017-0.179-0.063-0.26c-0.029-0.084-0.079-0.156-0.15-0.217
										c-0.126-0.117-0.333-0.205-0.514-0.197c-0.188,0.008-0.383,0.065-0.514,0.197c-0.121,0.122-0.236,0.304-0.213,0.477
										c0.053,0.392,0.105,0.785,0.158,1.178c-0.004,0.093,0.017,0.179,0.063,0.26c0.029,0.084,0.079,0.156,0.15,0.217
										c0.126,0.117,0.333,0.205,0.514,0.198c0.188-0.008,0.383-0.065,0.514-0.198c0.121-0.122,0.236-0.304,0.213-0.477
										C297.39,446.256,297.337,445.864,297.285,445.471z"/>
								</g>
								<g>
									<path style="fill:#191614;" d="M299.279,444.407c-0.126-0.117-0.333-0.205-0.514-0.198
										c-0.188,0.008-0.383,0.065-0.514,0.198c-0.13,0.132-0.213,0.294-0.213,0.477v1.325c0,0.173,0.081,0.355,0.213,0.477
										c0.126,0.117,0.333,0.205,0.514,0.198c0.188-0.008,0.383-0.065,0.514-0.198c0.13-0.132,0.213-0.294,0.213-0.477v-1.325
										C299.492,444.711,299.411,444.529,299.279,444.407z"/>
								</g>
								<g>
									<path style="fill:#191614;" d="M301.975,444.701c-0.126-0.117-0.333-0.205-0.514-0.197
										c-0.188,0.008-0.383,0.065-0.514,0.197c-0.131,0.132-0.213,0.294-0.213,0.477v1.325c0,0.173,0.081,0.354,0.213,0.477
										c0.126,0.117,0.333,0.205,0.514,0.197c0.188-0.008,0.383-0.065,0.514-0.197c0.13-0.132,0.213-0.294,0.213-0.477v-1.325
										C302.187,445.005,302.106,444.824,301.975,444.701z"/>
								</g>
							</g>
							<g>
								<g>
									<path style="fill:#191614;" d="M354.769,385.493c0.004-0.093-0.017-0.18-0.063-0.26c-0.029-0.084-0.079-0.156-0.15-0.217
										c-0.126-0.117-0.333-0.205-0.514-0.197c-0.188,0.008-0.383,0.065-0.514,0.197c-0.121,0.122-0.236,0.304-0.213,0.477
										c0.053,0.392,0.105,0.785,0.158,1.177c-0.004,0.093,0.017,0.18,0.062,0.26c0.029,0.084,0.079,0.156,0.15,0.217
										c0.126,0.117,0.333,0.205,0.514,0.197c0.188-0.008,0.383-0.065,0.514-0.197c0.121-0.122,0.236-0.304,0.213-0.477
										C354.874,386.278,354.821,385.885,354.769,385.493z"/>
								</g>
								<g>
									<path style="fill:#191614;" d="M356.763,384.428c-0.126-0.117-0.333-0.205-0.514-0.198
										c-0.188,0.008-0.383,0.065-0.514,0.198c-0.13,0.132-0.213,0.294-0.213,0.477v1.325c0,0.173,0.081,0.354,0.213,0.477
										c0.126,0.117,0.333,0.205,0.514,0.198c0.188-0.008,0.383-0.065,0.514-0.198c0.13-0.132,0.213-0.294,0.213-0.477v-1.325
										C356.976,384.732,356.895,384.551,356.763,384.428z"/>
								</g>
								<g>
									<path style="fill:#191614;" d="M359.459,384.723c-0.126-0.117-0.333-0.205-0.514-0.198
										c-0.188,0.008-0.383,0.065-0.514,0.198c-0.13,0.132-0.213,0.294-0.213,0.477v1.325c0,0.173,0.081,0.354,0.213,0.477
										c0.126,0.117,0.333,0.205,0.514,0.198c0.188-0.008,0.383-0.065,0.514-0.198c0.13-0.132,0.213-0.294,0.213-0.477V385.2
										C359.671,385.027,359.59,384.845,359.459,384.723z"/>
								</g>
							</g>
							<g>
								<g>
									<path style="fill:#191614;" d="M388.263,316.106c0.004-0.093-0.017-0.179-0.063-0.26c-0.029-0.084-0.079-0.156-0.15-0.217
										c-0.126-0.117-0.333-0.205-0.514-0.198c-0.188,0.008-0.383,0.065-0.514,0.198c-0.121,0.122-0.236,0.304-0.213,0.477
										c0.053,0.393,0.105,0.785,0.158,1.178c-0.004,0.093,0.017,0.179,0.063,0.26c0.029,0.084,0.079,0.156,0.15,0.217
										c0.126,0.117,0.333,0.205,0.514,0.198c0.188-0.008,0.383-0.065,0.514-0.198c0.121-0.122,0.236-0.304,0.213-0.477
										C388.368,316.891,388.315,316.498,388.263,316.106z"/>
								</g>
								<g>
									<path style="fill:#191614;" d="M390.257,315.042c-0.126-0.117-0.333-0.205-0.514-0.198
										c-0.188,0.008-0.383,0.065-0.514,0.198c-0.13,0.132-0.213,0.294-0.213,0.477v1.325c0,0.173,0.081,0.355,0.213,0.477
										c0.126,0.117,0.333,0.205,0.514,0.198c0.188-0.008,0.383-0.065,0.514-0.198c0.13-0.132,0.213-0.294,0.213-0.477v-1.325
										C390.47,315.345,390.389,315.164,390.257,315.042z"/>
								</g>
								<g>
									<path style="fill:#191614;" d="M392.953,315.336c-0.126-0.117-0.333-0.205-0.514-0.198
										c-0.188,0.008-0.383,0.065-0.514,0.198c-0.13,0.132-0.213,0.294-0.213,0.477v1.325c0,0.173,0.081,0.355,0.213,0.477
										c0.126,0.117,0.333,0.205,0.514,0.198c0.188-0.008,0.383-0.065,0.514-0.198c0.13-0.132,0.213-0.294,0.213-0.477v-1.325
										C393.165,315.64,393.084,315.458,392.953,315.336z"/>
								</g>
							</g>
							<g>
								<g>
									<path style="fill:#191614;" d="M432.24,342.956c0.004-0.093-0.017-0.18-0.063-0.26c-0.029-0.084-0.079-0.156-0.15-0.217
										c-0.126-0.117-0.333-0.205-0.514-0.198c-0.188,0.008-0.383,0.065-0.514,0.198c-0.121,0.122-0.236,0.304-0.213,0.477
										c0.053,0.392,0.105,0.785,0.158,1.177c-0.004,0.093,0.017,0.18,0.063,0.26c0.029,0.084,0.079,0.156,0.15,0.217
										c0.126,0.117,0.333,0.205,0.514,0.198c0.188-0.008,0.383-0.065,0.514-0.198c0.121-0.122,0.236-0.304,0.213-0.477
										C432.345,343.741,432.292,343.348,432.24,342.956z"/>
								</g>
								<g>
									<path style="fill:#191614;" d="M434.234,341.891c-0.126-0.117-0.333-0.205-0.514-0.197
										c-0.188,0.008-0.383,0.065-0.514,0.197c-0.13,0.132-0.213,0.294-0.213,0.477v1.325c0,0.173,0.081,0.354,0.213,0.477
										c0.126,0.117,0.333,0.205,0.514,0.197c0.188-0.008,0.383-0.065,0.514-0.197c0.13-0.132,0.213-0.294,0.213-0.477v-1.325
										C434.447,342.195,434.366,342.014,434.234,341.891z"/>
								</g>
								<g>
									<path style="fill:#191614;" d="M436.93,342.186c-0.126-0.117-0.333-0.205-0.514-0.197
										c-0.188,0.008-0.383,0.065-0.514,0.197c-0.13,0.132-0.213,0.294-0.213,0.477v1.325c0,0.173,0.081,0.354,0.213,0.477
										c0.126,0.117,0.333,0.205,0.514,0.197c0.188-0.008,0.383-0.065,0.514-0.197c0.13-0.132,0.213-0.294,0.213-0.477v-1.325
										C437.142,342.49,437.061,342.308,436.93,342.186z"/>
								</g>
							</g>
							<g>
								<g>
									<path style="fill:#191614;" d="M248.86,391.711c0.004-0.093-0.017-0.179-0.063-0.26c-0.029-0.084-0.079-0.156-0.15-0.217
										c-0.126-0.117-0.333-0.205-0.514-0.197c-0.188,0.008-0.383,0.065-0.514,0.197c-0.121,0.122-0.236,0.304-0.213,0.477
										c0.053,0.393,0.105,0.785,0.158,1.178c-0.004,0.093,0.017,0.179,0.063,0.26c0.029,0.083,0.079,0.156,0.15,0.217
										c0.126,0.117,0.333,0.205,0.514,0.198c0.188-0.008,0.383-0.065,0.514-0.198c0.121-0.122,0.236-0.304,0.213-0.477
										C248.965,392.496,248.912,392.104,248.86,391.711z"/>
								</g>
								<g>
									<path style="fill:#191614;" d="M250.854,390.647c-0.126-0.117-0.333-0.205-0.514-0.198
										c-0.188,0.008-0.383,0.065-0.514,0.198c-0.13,0.132-0.213,0.294-0.213,0.477v1.325c0,0.173,0.081,0.354,0.213,0.477
										c0.126,0.117,0.333,0.205,0.514,0.198c0.188-0.008,0.383-0.065,0.514-0.198c0.13-0.132,0.213-0.294,0.213-0.477v-1.325
										C251.067,390.951,250.986,390.77,250.854,390.647z"/>
								</g>
								<g>
									<path style="fill:#191614;" d="M253.55,390.942c-0.126-0.117-0.333-0.205-0.514-0.197
										c-0.188,0.008-0.383,0.065-0.514,0.197c-0.131,0.132-0.213,0.294-0.213,0.477v1.325c0,0.173,0.081,0.354,0.213,0.477
										c0.126,0.117,0.333,0.205,0.514,0.197c0.188-0.008,0.383-0.065,0.514-0.197c0.13-0.132,0.213-0.294,0.213-0.477v-1.325
										C253.762,391.246,253.681,391.064,253.55,390.942z"/>
								</g>
							</g>
						</g>
					</g>
				</g>
			</g>
		</g>
		<g>
			<g>
				<path style="fill:#146c73;" d="M261.229,412.161c-2.118-0.051-4.699,0.448-5.4,2.448c-0.694,1.979,0.987,3.986,2.728,5.156
					c3.5,2.354,7.85,3.414,12.041,2.934c4.16-0.477,7.536-3.946,4.096-7.368C272.166,412.817,264.509,412.241,261.229,412.161z"/>
			</g>
			<g>
				<path style="fill:#146c73;" d="M181.616,415.229c-3.082,1.66-5.67,3.687-6.934,6.164c-5.135,10.068,14.685,11.059,20.068,11.335
					c13.78,0.705,29.427,0.523,41.114-7.795c1.635-1.164,3.2-2.516,4.165-4.276c5.283-9.637-11.022-12.729-17.071-13.261
					c-8.711-0.766-17.555,0.007-25.993,2.309C192.93,410.807,186.622,412.533,181.616,415.229z"/>
			</g>
		</g>
	</g>
	<g>
		<g>
			<g>
				<g>
					<defs>
						<polygon id="XMLID_9_" points="89.024,342.378 132.502,312.132 373.837,312.132 425.506,342.378 						"/>
					</defs>
					<use xlink:href="#XMLID_9_"  style="overflow:visible;fill:#8E7965;"/>
					<clipPath id="XMLID_00000065055580734954529060000014754693028086846370_">
						<use xlink:href="#XMLID_9_"  style="overflow:visible;"/>
					</clipPath>
					<g style="clip-path:url(#XMLID_00000065055580734954529060000014754693028086846370_);">
						<g>
							<path style="fill:#0E0603;" d="M399.927,320.101H118.13c-0.276,0-0.5-0.224-0.5-0.5c0-0.276,0.224-0.5,0.5-0.5h281.796
								c0.276,0,0.5,0.224,0.5,0.5C400.427,319.877,400.203,320.101,399.927,320.101z"/>
						</g>
						<g>
							<path style="fill:#0E0603;" d="M404.629,329.438H104.914c-0.276,0-0.5-0.224-0.5-0.5c0-0.276,0.224-0.5,0.5-0.5h299.715
								c0.276,0,0.5,0.224,0.5,0.5C405.129,329.214,404.905,329.438,404.629,329.438z"/>
						</g>
						<g>
							<path style="fill:#0E0603;" d="M428.456,338.068H95.444c-0.276,0-0.5-0.224-0.5-0.5c0-0.276,0.224-0.5,0.5-0.5h333.012
								c0.276,0,0.5,0.224,0.5,0.5C428.956,337.844,428.732,338.068,428.456,338.068z"/>
						</g>
					</g>
				</g>
				<rect x="89.024" y="342.378" style="fill:#6B4E2D;" width="336.483" height="10.712"/>
				<g>
					<g>
						<defs>
							<path id="XMLID_2_" d="M256.201,154.043c-36.433,43.009-72.866,86.017-109.299,129.026c1.13,10.27,0.1,20.166-1.978,30.287
								h227.169c-0.98-8.829-1.084-15.705-2.064-24.535C333.746,243.186,295.345,197.248,256.201,154.043z"/>
						</defs>
						<use xlink:href="#XMLID_2_"  style="overflow:visible;fill:#5B381A;"/>
						<clipPath id="XMLID_00000059989043112377784770000016240223117810089370_">
							<use xlink:href="#XMLID_2_"  style="overflow:visible;"/>
						</clipPath>
						<path style="clip-path:url(#XMLID_00000059989043112377784770000016240223117810089370_);fill:#FFFFFF;" d="M255.26,169.819
							c0.032-0.193,0.309-0.16,0.299,0.036c-1.059,19.525,5.099,39.391,17.107,54.836c12.774,16.431,32.029,27.678,52.615,30.736
							c-7.571,21.346-13.47,44.066-21.041,65.412h72.054c-1.4-9.431-4.259-17.994-5.66-27.425
							c-4.015-27.039-12.159-52.804-24.623-77.133c-12.464-24.329-30.628-46.431-54.639-59.499
							c-17.06-9.284-37.896-13.644-56.069-6.789c-14.919,5.627-26.219,17.959-35.971,30.573
							c-26.204,33.894-45.6,73.029-56.703,114.407c-1.905,7.1,2.412,16.296,2.412,23.647c0,2.104,0.488,3.551,0.732,5.641
							c1.442-0.141,2.867-0.459,4.309-0.6h51.704c-6.844-18.92-13.421-38.178-19.144-57.467c21.929,0.03,40.894-13.624,52.508-33.25
							C246.131,214.387,251.727,191.327,255.26,169.819z"/>
					</g>
					<g>
						<g>
							<g>
								<g>
									<path style="fill:#140F0A;" d="M280.074,127.844c-0.738,0-1.477-0.185-2.123-0.562c-0.998-0.582-1.751-1.628-2.015-2.8
										c-0.234-1.04-0.055-2.063,0.505-2.881c0.452-0.661,2.019-1.575,3.056-1.139c0.509,0.214,0.748,0.801,0.534,1.31
										c-0.197,0.469-0.714,0.708-1.187,0.577c-0.206,0.034-0.643,0.258-0.767,0.4c-0.297,0.437-0.269,0.947-0.19,1.294
										c0.142,0.63,0.552,1.21,1.07,1.512c0.774,0.452,1.848,0.37,2.546-0.195c0.429-0.348,1.061-0.28,1.406,0.148
										c0.348,0.429,0.281,1.059-0.148,1.406C282.002,127.528,281.038,127.844,280.074,127.844z"/>
								</g>
								<g>
									<path style="fill:#140F0A;" d="M235.517,131.196c0.738,0,1.477-0.185,2.123-0.562c0.998-0.582,1.751-1.628,2.015-2.8
										c0.234-1.04,0.055-2.063-0.505-2.881c-0.452-0.661-2.019-1.575-3.056-1.139c-0.509,0.214-0.748,0.801-0.534,1.31
										c0.197,0.469,0.714,0.708,1.186,0.577c0.206,0.034,0.643,0.258,0.767,0.4c0.297,0.437,0.268,0.947,0.19,1.294
										c-0.142,0.63-0.552,1.21-1.07,1.512c-0.774,0.452-1.848,0.37-2.546-0.195c-0.429-0.348-1.061-0.28-1.406,0.148
										c-0.348,0.429-0.281,1.059,0.148,1.406C233.589,130.881,234.553,131.196,235.517,131.196z"/>
								</g>
							</g>
							<g>
								<g>
									<g>
										<g>
											<path style="fill:#6B4E2D;" d="M112.375,329.438c-0.557,0.013-1.121-0.161-1.588-0.533
												c-1.049-0.833-1.212-2.346-0.364-3.378l173.397-211.28c0.846-1.033,2.386-1.195,3.433-0.361
												c1.049,0.834,1.213,2.346,0.364,3.379L114.221,328.544C113.75,329.117,113.069,329.422,112.375,329.438z"/>
											<path style="fill:#191614;" d="M112.319,329.939c-0.669,0-1.321-0.228-1.844-0.643c-0.613-0.487-0.997-1.182-1.08-1.955
												c-0.082-0.771,0.145-1.528,0.64-2.132l173.397-211.28c1.019-1.244,2.872-1.438,4.131-0.435
												c0.614,0.488,0.998,1.183,1.08,1.956c0.082,0.771-0.145,1.528-0.64,2.131L114.607,328.861
												c-0.545,0.664-1.354,1.057-2.221,1.077h-0.001C112.364,329.938,112.341,329.939,112.319,329.939z M285.721,113.851
												c-0.568,0-1.131,0.243-1.515,0.712L110.809,325.844c-0.324,0.394-0.472,0.888-0.418,1.391
												c0.054,0.505,0.305,0.959,0.708,1.278c0.357,0.284,0.809,0.429,1.265,0.425l0,0c0.575-0.014,1.111-0.273,1.471-0.712
												L287.23,116.947c0.323-0.394,0.473-0.888,0.419-1.391c-0.054-0.505-0.306-0.96-0.708-1.28
												C286.582,113.991,286.149,113.851,285.721,113.851z"/>
										</g>
									</g>
									<g>
										<g>
											<path style="fill:#6B4E2D;" d="M408.085,335.35c-0.71,0-1.415-0.301-1.909-0.886L223.749,118.835
												c-0.892-1.054-0.76-2.631,0.294-3.523c1.055-0.891,2.632-0.76,3.523,0.294l182.425,215.63
												c0.893,1.054,0.761,2.631-0.294,3.523C409.229,335.156,408.655,335.35,408.085,335.35z"/>
											<path style="fill:#191614;" d="M408.085,335.85c-0.886,0-1.721-0.388-2.291-1.063L223.368,119.158
												c-1.068-1.263-0.91-3.16,0.353-4.228c1.263-1.067,3.16-0.909,4.228,0.353l182.425,215.63
												c0.518,0.611,0.767,1.389,0.699,2.187c-0.066,0.799-0.44,1.523-1.052,2.041
												C409.481,335.598,408.794,335.85,408.085,335.85z M225.657,115.221c-0.457,0-0.916,0.155-1.291,0.472
												c-0.842,0.712-0.947,1.977-0.235,2.819l182.426,215.629c0.686,0.813,2.007,0.924,2.817,0.235
												c0.408-0.345,0.658-0.828,0.702-1.36c0.045-0.532-0.121-1.05-0.467-1.457L227.185,115.928
												C226.79,115.462,226.226,115.221,225.657,115.221z"/>
										</g>
									</g>
								</g>
								<g>
									<g>
										<path style="fill:#6B4E2D;" d="M157.631,314.633c-0.962,0-1.88-0.56-2.291-1.497l-36.47-83.175
											c-0.555-1.265,0.021-2.739,1.286-3.294c1.265-0.554,2.74,0.021,3.293,1.286l36.47,83.175
											c0.555,1.265-0.021,2.739-1.286,3.294C158.307,314.565,157.966,314.633,157.631,314.633z"/>
										<path style="fill:#191614;" d="M157.631,315.133c-1.191,0-2.271-0.705-2.749-1.796l-36.47-83.176
											c-0.322-0.734-0.338-1.549-0.047-2.295c0.292-0.747,0.856-1.335,1.59-1.657c1.516-0.662,3.29,0.029,3.952,1.543
											l36.47,83.175c0.665,1.516-0.028,3.288-1.543,3.953C158.45,315.048,158.045,315.133,157.631,315.133z M121.157,226.957
											c-0.267,0-0.539,0.054-0.8,0.168c-0.489,0.214-0.866,0.606-1.06,1.104c-0.194,0.498-0.183,1.042,0.032,1.531l36.47,83.175
											c0.43,0.98,1.638,1.465,2.635,1.029c1.01-0.443,1.471-1.625,1.028-2.635l-36.47-83.176
											C122.663,227.405,121.927,226.957,121.157,226.957z"/>
									</g>
								</g>
								<g>
									<g>
										<path style="fill:#6B4E2D;" d="M361.248,313.56c-0.288,0-0.581-0.051-0.867-0.156c-1.295-0.479-1.956-1.917-1.478-3.212
											l31.18-84.334c0.479-1.294,1.917-1.956,3.212-1.477c1.295,0.479,1.956,1.916,1.478,3.211l-31.18,84.334
											C363.22,312.935,362.265,313.56,361.248,313.56z"/>
										<path style="fill:#191614;" d="M361.248,314.06c-0.354,0-0.703-0.063-1.04-0.188c-1.552-0.573-2.348-2.302-1.773-3.854
											l31.18-84.334c0.574-1.552,2.303-2.348,3.854-1.773c0.751,0.277,1.35,0.831,1.685,1.559
											c0.334,0.728,0.366,1.543,0.088,2.294l-31.18,84.334C363.628,313.272,362.497,314.06,361.248,314.06z M392.431,224.725
											c-0.814,0-1.58,0.5-1.879,1.307l-31.18,84.333c-0.382,1.034,0.148,2.186,1.182,2.569c1.023,0.377,2.199-0.18,2.57-1.183
											l31.18-84.333c0.382-1.035-0.148-2.187-1.182-2.569C392.894,224.766,392.66,224.725,392.431,224.725z"/>
									</g>
								</g>
								<g>
									<g>
										<g>
											<polygon style="fill:#FDCE5E;" points="385.497,226.23 372.918,230.437 372.918,218.021 											"/>
											<polygon style="fill:#EEAE94;" points="372.918,217.566 360.34,221.773 360.34,209.357 											"/>
										</g>
										<g>
											<polygon style="fill:#FDCE5E;" points="359.243,208.525 346.482,212.139 347.062,199.737 											"/>
											<polygon style="fill:#EEAE94;" points="346.482,198.943 333.53,201.802 334.839,189.454 											"/>
										</g>
										<g>
											<polygon style="fill:#FDCE5E;" points="333.896,188.243 320.797,190.323 322.84,178.076 											"/>
											<polygon style="fill:#EEAE94;" points="322.358,177.219 309.159,178.525 311.919,166.419 											"/>
										</g>
										<g>
											<polygon style="fill:#FDCE5E;" points="311.058,165.65 297.794,165.695 301.693,153.906 											"/>
											<polygon style="fill:#FDCE5E;" points="292.494,140.164 279.255,139.358 283.902,127.844 											"/>
											<polygon style="fill:#EEAE94;" points="301.347,152.986 288.104,152.252 292.689,140.713 											"/>
										</g>
									</g>
								</g>
							</g>
							<g>
								<g>
									<g>
										<polygon style="fill:#FDCE5E;" points="130.1,229.492 142.678,233.699 142.678,221.283 										"/>
										<polygon style="fill:#EEAE94;" points="142.678,220.828 155.257,225.035 155.257,212.619 										"/>
									</g>
									<g>
										<polygon style="fill:#FDCE5E;" points="156.353,211.787 169.115,215.402 168.534,202.999 										"/>
										<polygon style="fill:#EEAE94;" points="169.115,202.205 182.066,205.064 180.758,192.716 										"/>
									</g>
									<g>
										<polygon style="fill:#FDCE5E;" points="181.701,191.505 194.8,193.585 192.757,181.337 										"/>
										<polygon style="fill:#EEAE94;" points="193.239,180.481 206.438,181.787 203.678,169.681 										"/>
									</g>
									<g>
										<polygon style="fill:#FDCE5E;" points="204.539,168.911 217.802,168.957 213.904,157.168 										"/>
										<polygon style="fill:#FDCE5E;" points="223.103,143.426 236.342,142.62 231.695,131.106 										"/>
										<polygon style="fill:#EEAE94;" points="214.249,156.248 227.492,155.514 222.908,143.975 										"/>
									</g>
								</g>
								<g>
									<path style="fill:#191614;" d="M121.187,234.84c-0.368,0-0.722-0.201-0.9-0.552c-0.251-0.496-0.053-1.102,0.444-1.353
										c45.534-23.027,84.777-59.965,110.499-104.01c0.28-0.482,0.898-0.642,1.378-0.362c0.48,0.28,0.643,0.896,0.363,1.377
										c-25.916,44.376-65.454,81.592-111.329,104.792C121.495,234.805,121.34,234.84,121.187,234.84z"/>
								</g>
							</g>
							<path style="fill:#140F0A;" d="M394.373,228.399c-8.553-4.294-16.864-9.062-24.893-14.257
								c-8.058-5.214-15.833-10.858-23.289-16.891c-7.467-6.043-14.613-12.475-21.401-19.261
								c-6.782-6.78-13.206-13.913-19.23-21.365c-6.006-7.43-11.614-15.176-16.776-23.205c-1.899-2.953-4.062-5.974-5.537-9.148
								c-1.031-2.219-2.627-4.276-5.376-3.678c-0.545,0.118-0.891,0.653-0.771,1.194c0.118,0.541,0.653,0.884,1.204,0.766
								c1.774-0.39,2.646,1.413,3.265,2.726c0.842,1.784,1.893,3.442,2.929,5.121c2.5,4.052,5.112,8.036,7.83,11.947
								c5.452,7.845,11.331,15.399,17.592,22.626c6.275,7.244,12.933,14.162,19.935,20.718c7.002,6.556,14.347,12.752,22,18.549
								c7.635,5.784,15.576,11.172,23.786,16.12c5.81,3.502,11.755,6.781,17.819,9.829c0.146,0.073,0.302,0.108,0.455,0.108
								c0.369,0,0.725-0.201,0.904-0.55C395.071,229.253,394.872,228.649,394.373,228.399z"/>
						</g>
						<g>
							<path style="fill:#100B07;" d="M231.978,130.554c-0.066-0.005-0.134-0.015-0.2-0.034c-0.532-0.147-0.845-0.698-0.697-1.23
								c0.358-1.293,0.763-2.759,1.762-3.945c1.009-1.2,2.901-2.138,4.665-1.358c0.505,0.223,0.734,0.814,0.511,1.319
								c-0.223,0.506-0.814,0.736-1.319,0.511c-0.777-0.343-1.778,0.163-2.326,0.816c-0.718,0.853-1.047,2.042-1.365,3.192
								C232.88,130.289,232.442,130.586,231.978,130.554z"/>
						</g>
					</g>
				</g>
			</g>
			<g>
				
					<line style="fill:none;stroke:#D8A27D;stroke-linecap:round;stroke-linejoin:round;stroke-miterlimit:10;" x1="254.9" y1="159.779" x2="254.9" y2="208.66"/>
				<g>
					<defs>
						<path id="XMLID_3_" d="M244.127,222.485c0.085-3.95,0.969-8.036,3.439-11.12c2.47-3.083,6.788-4.895,10.518-3.592
							c2.528,0.883,4.457,3.039,5.609,5.457c1.152,2.418,1.618,6.099,1.981,8.752C258.611,223.234,251.297,222.694,244.127,222.485z
							"/>
					</defs>
					<use xlink:href="#XMLID_3_"  style="overflow:visible;fill:#D8A27D;"/>
					<clipPath id="XMLID_00000090986868916141510510000007210218156578978979_">
						<use xlink:href="#XMLID_3_"  style="overflow:visible;"/>
					</clipPath>
					<path style="clip-path:url(#XMLID_00000090986868916141510510000007210218156578978979_);fill:#FDCE5E;" d="M242.802,222.781
						c3.336-2.835,7.683-4.454,12.061-4.491c4.378-0.037,8.752,1.508,12.135,4.287"/>
				</g>
				<g>
					<g>
						<path style="fill:#FDCE5E;" d="M244.263,232.524c-0.042,0-0.085-0.005-0.128-0.017c-0.267-0.07-0.426-0.345-0.355-0.611
							l1.676-6.334c0.071-0.267,0.345-0.423,0.611-0.355c0.267,0.071,0.426,0.344,0.355,0.611l-1.676,6.335
							C244.687,232.376,244.485,232.524,244.263,232.524z"/>
					</g>
					<g>
						<path style="fill:#FDCE5E;" d="M255.379,234.641c-0.276,0-0.5-0.224-0.5-0.5v-7.683c0-0.276,0.224-0.5,0.5-0.5
							c0.276,0,0.5,0.224,0.5,0.5v7.683C255.879,234.418,255.656,234.641,255.379,234.641z"/>
					</g>
					<g>
						<path style="fill:#FDCE5E;" d="M266.818,231.179c-0.197,0-0.385-0.118-0.463-0.312l-2.366-5.835
							c-0.104-0.256,0.021-0.548,0.276-0.651c0.255-0.105,0.547,0.019,0.651,0.275l2.364,5.836c0.104,0.256-0.02,0.547-0.275,0.651
							C266.944,231.167,266.88,231.179,266.818,231.179z"/>
					</g>
				</g>
			</g>
			<g>
				<g>
					<path style="fill:#191614;" d="M180.66,266.719c-2.724,0-5.443-0.191-8.137-0.583c-0.273-0.04-0.463-0.294-0.423-0.567
						c0.039-0.273,0.288-0.459,0.566-0.423c17.703,2.58,36.594-3.637,49.311-16.212c5.298-5.238,9.998-11.855,14.793-20.827
						c9.769-18.278,15.584-38.841,17.632-59.466c0.027-0.275,0.267-0.474,0.547-0.448c0.274,0.027,0.475,0.272,0.447,0.547
						c-2.061,20.754-7.914,41.446-17.744,59.839c-4.843,9.062-9.6,15.755-14.971,21.066
						C211.681,260.522,196.135,266.719,180.66,266.719z"/>
				</g>
				<g>
					<path style="fill:#191614;" d="M198.113,314.179c-0.211,0-0.407-0.133-0.476-0.341l-15.565-47.269
						c-0.085-0.26,0.058-0.539,0.321-0.624c0.262-0.085,0.545,0.057,0.63,0.317l15.565,47.269c0.085,0.26-0.058,0.539-0.321,0.624
						C198.217,314.171,198.165,314.179,198.113,314.179z"/>
				</g>
			</g>
		</g>
		<g>
			<path style="fill:#442F19;" d="M107.101,373.241L107.101,373.241c-2.861,0-5.18-2.319-5.18-5.18V353.09h10.36v14.971
				C112.282,370.922,109.962,373.241,107.101,373.241z"/>
			<path style="fill:#442F19;" d="M404.629,373.241L404.629,373.241c-2.861,0-5.18-2.319-5.18-5.18V353.09h10.36v14.971
				C409.809,370.922,407.49,373.241,404.629,373.241z"/>
		</g>
		<g>
			<g>
				<g>
					<path style="fill:#C8E3D4;" d="M255.398,320.968c-0.553,0-1-0.447-1-1v-42.727c0-0.553,0.447-1,1-1c0.553,0,1,0.447,1,1v42.727
						C256.398,320.521,255.951,320.968,255.398,320.968z"/>
				</g>
				<g>
					<path style="fill:#146c73;" d="M268.251,277.241h-25.714c-2.605,0-4.718-2.112-4.718-4.717l0,0
						c0-2.605,2.112-4.718,4.718-4.718h25.714c2.605,0,4.717,2.112,4.717,4.718l0,0
						C272.969,275.129,270.857,277.241,268.251,277.241z"/>
				</g>
			</g>
			<g>
				<g>
					<path style="fill:#C8E3D4;" d="M262.426,320.9h-13.042c-0.829,0-1.5-0.672-1.5-1.5c0-0.828,0.671-1.5,1.5-1.5h13.042
						c0.828,0,1.5,0.672,1.5,1.5C263.926,320.228,263.254,320.9,262.426,320.9z"/>
				</g>
			</g>
			<g>
				<path style="fill:#191614;" d="M263.406,277.813c-1.384,0-2.772-0.047-4.142-0.094c-1.017-0.034-2.023-0.068-3.01-0.082
					c-2.985-0.042-5.969-0.124-8.953-0.205l-1.354-0.037c-0.416-0.011-0.866-0.005-1.333,0.005
					c-1.754,0.028-3.748,0.064-5.196-0.853c-1.019-0.647-1.664-1.797-1.683-3.003c-0.003-0.207,0.162-0.378,0.369-0.381
					c0.238,0.013,0.377,0.162,0.381,0.369c0.015,0.942,0.538,1.877,1.334,2.382c1.257,0.795,3.13,0.763,4.782,0.735
					c0.479-0.009,0.94-0.015,1.367-0.005l1.354,0.037c2.981,0.081,5.96,0.163,8.942,0.205c0.992,0.015,2.004,0.049,3.025,0.083
					c3.264,0.109,6.638,0.224,9.755-0.311c1.709-0.293,3.549-1.713,3.549-4.136c0-0.207,0.168-0.375,0.375-0.375
					c0.207,0,0.375,0.168,0.375,0.375c0,2.857-2.163,4.53-4.172,4.874C267.304,277.719,265.359,277.813,263.406,277.813z"/>
			</g>
			<g>
				<path style="fill:#191614;" d="M263.297,318.275h-14.945c-0.207,0-0.375-0.168-0.375-0.375c0-0.207,0.168-0.375,0.375-0.375
					h14.945c0.207,0,0.375,0.168,0.375,0.375C263.672,318.107,263.504,318.275,263.297,318.275z"/>
			</g>
		</g>
		<g>
			<g>
				<g>
					<g>
						<path style="fill:#00AAA9;" d="M339.772,295.151c1.981,8.117,3.37,16.38,4.598,24.746c0.25,1.701,2.114,2.616,3.62,1.787
							c0.015-0.008,0.029-0.016,0.044-0.024c0.923-0.505,1.413-1.552,1.216-2.585c-1.488-7.809-4.542-22.602-5.947-30.32
							C341.981,288.783,341.093,295.122,339.772,295.151z"/>
					</g>
					<g>
						<path style="fill:#00AAA9;" d="M286.045,297.347c-2.064,7.628-4.72,15.115-7.565,22.617c-0.579,1.525,0.637,3.111,2.356,3.088
							c0.017,0,0.033,0,0.05-0.001c1.052-0.011,1.976-0.666,2.288-1.612c2.355-7.153,4.53-14.948,6.916-21.989
							C288.909,298.889,287.224,297.908,286.045,297.347z"/>
					</g>
					<g>
						<path style="fill:#00AAA9;" d="M327.462,298.701c-2.064,8.097-4.72,16.043-7.565,24.005c-0.579,1.619,0.637,3.303,2.356,3.278
							c0.017,0,0.033,0,0.05-0.001c1.052-0.012,1.976-0.707,2.288-1.711c2.355-7.592,6.608-22.086,8.993-29.56
							C332.404,294.117,328.642,299.296,327.462,298.701z"/>
					</g>
				</g>
				<g>
					<path style="fill:#060200;" d="M281.899,294.665c-0.477,0-0.899-0.342-0.984-0.828c-0.399-2.287-0.813-4.652-0.691-7.081
						c0.1-1.969,0.624-4.778,2.556-6.983c1.834-2.093,4.701-3.342,8.076-3.518c2.9-0.153,5.708,0.46,8.425,1.052
						c0.539,0.118,0.882,0.65,0.765,1.19c-0.118,0.539-0.647,0.881-1.19,0.765c-2.586-0.563-5.262-1.143-7.896-1.009
						c-2.789,0.146-5.223,1.181-6.676,2.839c-1.553,1.772-1.979,4.113-2.062,5.766c-0.11,2.205,0.283,4.458,0.664,6.637
						c0.095,0.544-0.27,1.062-0.813,1.157C282.015,294.66,281.956,294.665,281.899,294.665z"/>
				</g>
				<g>
					<defs>
						<path id="SVGID_00000183243817450650464950000009559524187348596903_" d="M295.397,293.665l23.198,3.682l23.419-3.03
							l5.395-23.125c2.849-14.003-7.852-27.102-22.142-27.102l0,0c-10.409,0-19.472,7.111-21.948,17.221L295.397,293.665z"/>
					</defs>
					<use xlink:href="#SVGID_00000183243817450650464950000009559524187348596903_"  style="overflow:visible;fill:#146c73;"/>
					<clipPath id="SVGID_00000136405235050618663460000002429952999173257363_">
						<use xlink:href="#SVGID_00000183243817450650464950000009559524187348596903_"  style="overflow:visible;"/>
					</clipPath>
					<g style="clip-path:url(#SVGID_00000136405235050618663460000002429952999173257363_);">
						<g>
							
								<rect x="275.755" y="272.624" transform="matrix(0.1927 -0.9813 0.9813 0.1927 -19.4127 522.4025)" style="fill:#0E0603;" width="64.052" height="0.75"/>
						</g>
					</g>
					<g style="clip-path:url(#SVGID_00000136405235050618663460000002429952999173257363_);">
						<g>
							
								<rect x="285.986" y="273.558" transform="matrix(0.1926 -0.9813 0.9813 0.1926 -12.0363 533.2387)" style="fill:#0E0603;" width="64.052" height="0.75"/>
						</g>
					</g>
					<g style="clip-path:url(#SVGID_00000136405235050618663460000002429952999173257363_);">
						<g>
							
								<rect x="296.724" y="273.183" transform="matrix(0.1926 -0.9813 0.9813 0.1926 -2.991 543.4816)" style="fill:#0E0603;" width="64.052" height="0.75"/>
						</g>
					</g>
					<g style="clip-path:url(#SVGID_00000136405235050618663460000002429952999173257363_);">
						<g>
							
								<rect x="308.48" y="273.183" transform="matrix(0.1926 -0.9813 0.9813 0.1926 6.4954 555.0105)" style="fill:#0E0603;" width="64.052" height="0.75"/>
						</g>
					</g>
				</g>
				<g>
					<polyline style="fill:#146c73;" points="281.123,293.436 296.6,288.754 343.302,288.754 328.394,297.347 281.123,293.436 					
						"/>
				</g>
				<g>
					<defs>
						<path id="SVGID_00000062153707062365005350000006620781647901583495_" d="M334.191,301.971
							c-2.498,1.374-5.316,2.057-8.166,1.979l-31.661-0.862c-4.518-0.123-8.67-2.454-11.051-6.204l-2.19-3.449l41.938,1.111
							c3.581,0,7.137-0.596,10.522-1.763l9.718-4.03l-0.801,3.87c-0.708,3.421-2.878,6.361-5.94,8.044L334.191,301.971z"/>
					</defs>
					<use xlink:href="#SVGID_00000062153707062365005350000006620781647901583495_"  style="overflow:visible;fill:#146c73;"/>
					<clipPath id="SVGID_00000069363107801292043620000000058093185826378377_">
						<use xlink:href="#SVGID_00000062153707062365005350000006620781647901583495_"  style="overflow:visible;"/>
					</clipPath>
					<g style="clip-path:url(#SVGID_00000069363107801292043620000000058093185826378377_);">
						<path style="fill:#00AAA9;" d="M331.373,293.454c-0.654,4.727-3.04,7.985-7.022,10.615c3.904,0.914,7.783,1.094,11.408-0.62
							c3.625-1.714,6.642-4.682,8.414-8.279c1.442-2.928,0.639-6.934,0.772-10.196c-2.881,2.049-6.566,3.784-9.956,4.783
							c-0.709,0.209-1.441,0.401-2.05,0.819C332.329,290.996,331.474,292.721,331.373,293.454z"/>
					</g>
				</g>
				<g>
					<g>
						<path style="fill:#060200;" d="M327.364,294.665c-0.477,0-0.899-0.342-0.984-0.828c-0.4-2.287-0.813-4.652-0.692-7.081
							c0.1-1.969,0.624-4.778,2.556-6.983c1.834-2.093,4.701-3.342,8.076-3.518c2.899-0.153,5.709,0.46,8.425,1.052
							c0.539,0.118,0.882,0.65,0.765,1.19c-0.118,0.539-0.644,0.881-1.19,0.765c-2.587-0.563-5.263-1.143-7.895-1.009
							c-2.789,0.146-5.223,1.181-6.676,2.839c-1.553,1.772-1.978,4.113-2.061,5.766c-0.11,2.205,0.283,4.458,0.664,6.637
							c0.095,0.544-0.27,1.062-0.814,1.157C327.48,294.66,327.421,294.665,327.364,294.665z"/>
					</g>
				</g>
				<g>
					<g>
						<path style="fill:#191614;" d="M343.302,289.129H296.6c-0.207,0-0.375-0.168-0.375-0.375s0.168-0.375,0.375-0.375h46.702
							c0.207,0,0.375,0.168,0.375,0.375S343.509,289.129,343.302,289.129z"/>
					</g>
				</g>
			</g>
			<g>
				<g>
					<g>
						<path style="fill:#00AAA9;" d="M169.245,295.151c-1.982,8.117-3.37,16.38-4.598,24.746c-0.25,1.701-2.114,2.616-3.62,1.787
							c-0.015-0.008-0.029-0.016-0.044-0.024c-0.923-0.505-1.413-1.552-1.216-2.585c1.488-7.809,4.542-22.602,5.947-30.32
							C167.036,288.783,167.924,295.122,169.245,295.151z"/>
					</g>
					<g>
						<path style="fill:#00AAA9;" d="M222.972,297.347c2.064,7.628,4.72,15.115,7.565,22.617c0.579,1.525-0.637,3.112-2.356,3.088
							c-0.017,0-0.033,0-0.05-0.001c-1.052-0.011-1.976-0.666-2.288-1.612c-2.355-7.153-4.531-14.948-6.916-21.989
							C220.108,298.889,221.792,297.908,222.972,297.347z"/>
					</g>
					<g>
						<path style="fill:#00AAA9;" d="M181.555,298.701c2.064,8.097,4.72,16.043,7.565,24.005c0.579,1.619-0.637,3.303-2.356,3.278
							c-0.017,0-0.034,0-0.05-0.001c-1.052-0.012-1.976-0.707-2.288-1.711c-2.355-7.592-6.607-22.086-8.993-29.56
							C176.613,294.117,180.375,299.296,181.555,298.701z"/>
					</g>
				</g>
				<g>
					<path style="fill:#060200;" d="M227.117,294.665c0.477,0,0.899-0.342,0.984-0.828c0.399-2.287,0.813-4.652,0.691-7.081
						c-0.1-1.969-0.624-4.778-2.556-6.983c-1.834-2.093-4.701-3.342-8.076-3.518c-2.9-0.153-5.708,0.46-8.425,1.052
						c-0.539,0.118-0.882,0.65-0.765,1.19c0.118,0.539,0.646,0.881,1.19,0.765c2.586-0.563,5.262-1.143,7.896-1.009
						c2.789,0.146,5.223,1.181,6.676,2.839c1.553,1.772,1.979,4.113,2.061,5.766c0.11,2.205-0.283,4.458-0.664,6.637
						c-0.095,0.544,0.27,1.062,0.813,1.157C227.002,294.66,227.061,294.665,227.117,294.665z"/>
				</g>
				<g>
					<defs>
						<path id="SVGID_00000042727315193985742910000001644959959063114124_" d="M213.62,293.665l-23.198,3.682l-23.419-3.03
							l-5.395-23.125c-2.85-14.003,7.852-27.102,22.142-27.102h0c10.409,0,19.472,7.111,21.948,17.221L213.62,293.665z"/>
					</defs>
					<use xlink:href="#SVGID_00000042727315193985742910000001644959959063114124_"  style="overflow:visible;fill:#146c73;"/>
					<clipPath id="SVGID_00000127745351354778621770000005336746277843172237_">
						<use xlink:href="#SVGID_00000042727315193985742910000001644959959063114124_"  style="overflow:visible;"/>
					</clipPath>
					<g style="clip-path:url(#SVGID_00000127745351354778621770000005336746277843172237_);">
						<g>
							
								<rect x="200.861" y="240.973" transform="matrix(0.9813 -0.1927 0.1927 0.9813 -48.8368 43.8965)" style="fill:#0E0603;" width="0.75" height="64.052"/>
						</g>
					</g>
					<g style="clip-path:url(#SVGID_00000127745351354778621770000005336746277843172237_);">
						<g>
							
								<rect x="190.63" y="241.907" transform="matrix(0.9813 -0.1926 0.1926 0.9813 -49.1732 41.9058)" style="fill:#0E0603;" width="0.75" height="64.052"/>
						</g>
					</g>
					<g style="clip-path:url(#SVGID_00000127745351354778621770000005336746277843172237_);">
						<g>
							
								<rect x="179.892" y="241.532" transform="matrix(0.9813 -0.1926 0.1926 0.9813 -49.307 39.836)" style="fill:#0E0603;" width="0.75" height="64.052"/>
						</g>
					</g>
					<g style="clip-path:url(#SVGID_00000127745351354778621770000005336746277843172237_);">
						<g>
							
								<rect x="168.136" y="241.532" transform="matrix(0.9813 -0.1926 0.1926 0.9813 -49.5271 37.5721)" style="fill:#0E0603;" width="0.75" height="64.052"/>
						</g>
					</g>
				</g>
				<g>
					<polyline style="fill:#146c73;" points="227.894,293.436 212.417,288.754 165.715,288.754 180.623,297.347 227.894,293.436 
											"/>
				</g>
				<g>
					<defs>
						<path id="SVGID_00000070828534819851731680000010414518048596085935_" d="M174.826,301.971
							c2.498,1.374,5.316,2.057,8.166,1.979l31.661-0.862c4.518-0.123,8.67-2.454,11.051-6.204l2.19-3.449l-41.938,1.111
							c-3.581,0-7.137-0.596-10.523-1.763l-9.718-4.03l0.801,3.87c0.708,3.421,2.878,6.361,5.939,8.044L174.826,301.971z"/>
					</defs>
					<use xlink:href="#SVGID_00000070828534819851731680000010414518048596085935_"  style="overflow:visible;fill:#146c73;"/>
					<clipPath id="SVGID_00000085955660267876711970000009196615186464944551_">
						<use xlink:href="#SVGID_00000070828534819851731680000010414518048596085935_"  style="overflow:visible;"/>
					</clipPath>
					<g style="clip-path:url(#SVGID_00000085955660267876711970000009196615186464944551_);">
						<path style="fill:#00AAA9;" d="M177.644,293.454c0.654,4.727,3.04,7.985,7.022,10.615c-3.904,0.914-7.783,1.094-11.408-0.62
							c-3.625-1.714-6.642-4.682-8.414-8.279c-1.442-2.928-0.639-6.934-0.772-10.196c2.881,2.049,6.566,3.784,9.956,4.783
							c0.709,0.209,1.441,0.401,2.05,0.819C176.688,290.996,177.543,292.721,177.644,293.454z"/>
					</g>
				</g>
				<g>
					<g>
						<path style="fill:#060200;" d="M181.653,294.665c0.477,0,0.899-0.342,0.984-0.828c0.399-2.287,0.812-4.652,0.691-7.081
							c-0.1-1.969-0.624-4.778-2.556-6.983c-1.834-2.093-4.701-3.342-8.076-3.518c-2.899-0.153-5.709,0.46-8.425,1.052
							c-0.539,0.118-0.882,0.65-0.765,1.19c0.118,0.539,0.644,0.881,1.191,0.765c2.587-0.563,5.263-1.143,7.895-1.009
							c2.789,0.146,5.223,1.181,6.676,2.839c1.553,1.772,1.979,4.113,2.062,5.766c0.11,2.205-0.283,4.458-0.664,6.637
							c-0.095,0.544,0.27,1.062,0.813,1.157C181.537,294.66,181.596,294.665,181.653,294.665z"/>
					</g>
				</g>
				<g>
					<g>
						<path style="fill:#191614;" d="M165.715,289.129h46.702c0.207,0,0.375-0.168,0.375-0.375s-0.168-0.375-0.375-0.375h-46.702
							c-0.207,0-0.375,0.168-0.375,0.375S165.508,289.129,165.715,289.129z"/>
					</g>
				</g>
			</g>
		</g>
	</g>
	<g>
		<g>
			
				<ellipse transform="matrix(0.9218 -0.3877 0.3877 0.9218 -12.6781 138.2537)" style="fill:#FFD055;" cx="336.34" cy="100.551" rx="21.181" ry="21.181"/>
			<g>
				<path style="fill:#FCFCFC;" d="M124.766,126.7c3.114-0.413,6.267,0.474,9.14,1.744c-1.12-3.9,0.961-8.464,4.64-10.175
					c3.68-1.712,8.511-0.363,10.772,3.007c0.483-7.439,5.326-14.433,12.119-17.504c6.793-3.07,15.243-2.083,21.146,2.469
					c5.903,4.553,9.004,12.475,7.76,19.825c3.135-3.943,9.912-4.141,13.271-0.387c3.359,3.754,2.412,10.468-1.854,13.146
					c-2.716,1.705-6.11,1.779-9.316,1.802c-17.496,0.121-34.991,0.242-52.487,0.363c-5.179,0.036-16.179,2.304-20.356-1.445
					C113.52,134.088,119.636,128.624,124.766,126.7z"/>
				<path style="fill:#FCFCFC;" d="M220.304,82.478c1.997-0.265,4.018,0.304,5.86,1.118c-0.718-2.501,0.616-5.427,2.975-6.524
					c2.359-1.097,5.457-0.233,6.906,1.928c0.31-4.769,3.415-9.254,7.77-11.222c4.355-1.968,9.773-1.336,13.558,1.583
					c3.785,2.919,5.773,7.998,4.975,12.711c2.01-2.528,6.355-2.655,8.509-0.248c2.154,2.407,1.547,6.711-1.188,8.429
					c-1.741,1.093-3.918,1.141-5.973,1.155c-11.217,0.078-22.435,0.155-33.652,0.233c-3.321,0.023-10.373,1.477-13.051-0.926
					C213.093,87.215,217.015,83.712,220.304,82.478z"/>
				<path style="fill:#FCFCFC;" d="M323.752,120.505c3.114-0.413,6.267,0.474,9.14,1.744c-1.12-3.9,0.961-8.464,4.641-10.175
					c3.68-1.711,8.511-0.363,10.772,3.007c0.483-7.439,5.326-14.433,12.119-17.504c6.793-3.07,15.243-2.083,21.146,2.47
					c5.903,4.553,9.004,12.475,7.76,19.825c3.135-3.943,9.912-4.141,13.271-0.387c3.359,3.754,2.412,10.468-1.854,13.146
					c-2.716,1.705-6.11,1.78-9.316,1.802c-17.496,0.121-34.991,0.242-52.487,0.363c-5.179,0.036-16.179,2.304-20.356-1.445
					C312.506,127.893,318.622,122.429,323.752,120.505z"/>
			</g>
		</g>
		<g>
			<g>
				<path style="fill:#FCFCFC;" d="M382.064,196.4c-3.314-1.081-4.005-1.9-4.925-5.839c-0.033-0.14-0.157-0.238-0.301-0.238
					c-0.143,0-0.268,0.099-0.3,0.238c-0.921,3.939-1.611,4.757-4.925,5.839c-0.127,0.041-0.213,0.16-0.213,0.293
					c0,0.134,0.086,0.252,0.213,0.293c3.314,1.081,4.005,1.9,4.925,5.839c0.033,0.14,0.157,0.238,0.3,0.238
					c0.143,0,0.268-0.099,0.301-0.238c0.92-3.939,1.611-4.757,4.925-5.839c0.127-0.041,0.213-0.16,0.213-0.293
					C382.276,196.56,382.19,196.441,382.064,196.4z"/>
			</g>
			<g>
				<path style="fill:#FCFCFC;" d="M192.609,156.875c-3.314-1.081-4.005-1.9-4.925-5.839c-0.033-0.14-0.157-0.238-0.301-0.238
					c-0.143,0-0.268,0.099-0.3,0.238c-0.921,3.939-1.611,4.757-4.925,5.839c-0.127,0.041-0.213,0.16-0.213,0.293
					c0,0.134,0.086,0.252,0.213,0.293c3.314,1.081,4.005,1.9,4.925,5.839c0.033,0.14,0.157,0.238,0.3,0.238
					c0.143,0,0.268-0.099,0.301-0.238c0.92-3.939,1.611-4.757,4.925-5.839c0.127-0.041,0.213-0.16,0.213-0.293
					C192.821,157.035,192.735,156.916,192.609,156.875z"/>
			</g>
			<g>
				<path style="fill:#FCFCFC;" d="M126.217,207.586c-2.349-0.766-2.838-1.347-3.491-4.138c-0.023-0.099-0.111-0.169-0.213-0.169
					c-0.102,0-0.19,0.07-0.213,0.169c-0.652,2.792-1.142,3.372-3.491,4.138c-0.09,0.029-0.151,0.113-0.151,0.208
					c0,0.095,0.061,0.179,0.151,0.208c2.349,0.767,2.838,1.347,3.491,4.138c0.023,0.099,0.111,0.169,0.213,0.169
					c0.102,0,0.19-0.07,0.213-0.169c0.652-2.792,1.142-3.372,3.491-4.138c0.09-0.029,0.151-0.113,0.151-0.208
					C126.368,207.699,126.307,207.615,126.217,207.586z"/>
			</g>
			<g>
				<path style="fill:#FCFCFC;" d="M334.944,171.046c-2.13-0.695-2.573-1.221-3.165-3.752c-0.021-0.09-0.101-0.153-0.193-0.153
					c-0.092,0-0.172,0.063-0.193,0.153c-0.591,2.531-1.035,3.057-3.165,3.752c-0.081,0.027-0.137,0.103-0.137,0.188
					c0,0.086,0.055,0.162,0.137,0.189c2.13,0.695,2.573,1.221,3.165,3.752c0.021,0.09,0.101,0.153,0.193,0.153
					c0.092,0,0.172-0.063,0.193-0.153c0.591-2.531,1.035-3.057,3.165-3.752c0.082-0.027,0.137-0.103,0.137-0.189
					C335.081,171.148,335.026,171.072,334.944,171.046z"/>
			</g>
		</g>
	</g>
</g>
</svg>
