<?xml version="1.0" encoding="utf-8"?>
<!-- Generator: Adobe Illustrator 27.5.0, SVG Export Plug-In . SVG Version: 6.00 Build 0)  -->
<svg version="1.1" xmlns="http://www.w3.org/2000/svg" xmlns:xlink="http://www.w3.org/1999/xlink" x="0px" y="0px"
	 viewBox="0 0 500 500" style="enable-background:new 0 0 500 500;" xml:space="preserve">
<g id="BACKGROUND">
	<rect id="_x3C_Path_x3E_" style="fill:#2A4E69;" width="500" height="500"/>
</g>
<g id="OBJECTS">
	<g>
		<defs>
			<rect id="_x3C_Path_x3E__00000147193188821250532440000003990523882211155101_" width="500" height="500"/>
		</defs>
		<clipPath id="_x3C_Path_x3E__00000175325057272582574520000008655140749153364396_">
			<use xlink:href="#_x3C_Path_x3E__00000147193188821250532440000003990523882211155101_"  style="overflow:visible;"/>
		</clipPath>
		
			<rect x="-0.065" y="329.248" style="clip-path:url(#_x3C_Path_x3E__00000175325057272582574520000008655140749153364396_);fill:#699166;" width="500" height="170.746"/>
		<g style="clip-path:url(#_x3C_Path_x3E__00000175325057272582574520000008655140749153364396_);">
			<ellipse style="opacity:0.69;fill:#547251;" cx="251.354" cy="454.076" rx="49.218" ry="14.114"/>
			<ellipse style="opacity:0.69;fill:#547251;" cx="251.221" cy="358.298" rx="212.375" ry="28.408"/>
			<ellipse style="opacity:0.69;fill:#547251;" cx="407.387" cy="384.43" rx="15.761" ry="4.216"/>
			<path style="opacity:0.69;fill:#547251;" d="M99.589,384.98c0,2.329-7.056,4.216-15.761,4.216s-15.761-1.888-15.761-4.216
				c0-2.329,7.057-4.217,15.761-4.217S99.589,382.651,99.589,384.98z"/>
			<path style="opacity:0.69;fill:#547251;" d="M31.428,339.471c0,2.329-7.056,4.216-15.761,4.216
				c-8.705,0-15.761-1.888-15.761-4.216c0-2.329,7.057-4.217,15.761-4.217C24.372,335.255,31.428,337.143,31.428,339.471z"/>
			<path style="opacity:0.69;fill:#547251;" d="M503.494,340.332c0,2.329-7.056,4.216-15.761,4.216
				c-8.705,0-15.761-1.888-15.761-4.216c0-2.329,7.057-4.217,15.761-4.217C496.438,336.115,503.494,338.003,503.494,340.332z"/>
		</g>
		<g style="clip-path:url(#_x3C_Path_x3E__00000175325057272582574520000008655140749153364396_);">
			<g>
				<path style="fill:#496E3F;" d="M109.77,268.857c9.151,1.766,37.775,6.166,70.998-0.022c1.691-0.315,2.715-2.059,2.196-3.699
					l-36.883-116.474c-0.863-2.724-4.737-2.664-5.516,0.084l-33.008,116.5C107.098,266.866,108.117,268.538,109.77,268.857z"/>
				<path style="fill:#564538;" d="M151.566,289.498l-3.116-43.861c-0.008-0.11,0.026-0.218,0.095-0.304l12.588-15.575
					c0.32-0.395-0.184-0.923-0.594-0.623l-11.711,8.588c-0.277,0.203-0.669,0.02-0.69-0.323l-2.131-34.309
					c-0.033-0.532-0.811-0.548-0.865-0.017l-1.648,16.113c-0.033,0.321-0.393,0.495-0.665,0.322l-5.391-3.431
					c-0.416-0.265-0.882,0.26-0.569,0.641l6.197,7.552c0.068,0.083,0.103,0.188,0.098,0.295l-1.21,26.872
					c-0.016,0.344-0.406,0.534-0.686,0.334l-12.297-8.784c-0.416-0.297-0.914,0.244-0.583,0.634l13.17,15.507
					c0.07,0.083,0.107,0.189,0.103,0.297l-1.133,30.016c-0.04,1.065,0.814,1.949,1.879,1.945l7.425-0.024
					C150.842,291.362,151.637,290.505,151.566,289.498z"/>
			</g>
			<g>
				<path style="fill:#879D59;" d="M36.713,310.813c10.614,2.048,43.815,7.152,82.351-0.025c1.962-0.365,3.15-2.388,2.547-4.29
					L78.83,171.4c-1-3.159-5.494-3.09-6.398,0.098L34.145,306.625C33.613,308.504,34.795,310.443,36.713,310.813z"/>
				<path style="fill:#564538;" d="M85.191,334.755l-3.614-50.874c-0.009-0.127,0.03-0.253,0.111-0.352l14.6-18.065
					c0.371-0.459-0.214-1.071-0.689-0.722l-13.584,9.961c-0.321,0.235-0.775,0.023-0.8-0.375l-2.472-39.795
					c-0.038-0.617-0.94-0.635-1.003-0.02l-1.911,18.69c-0.038,0.373-0.455,0.575-0.771,0.374l-6.253-3.979
					c-0.483-0.307-1.023,0.301-0.66,0.744l7.187,8.76c0.079,0.096,0.119,0.218,0.114,0.342l-1.404,31.169
					c-0.018,0.399-0.471,0.619-0.796,0.387L58.983,280.81c-0.483-0.345-1.06,0.283-0.676,0.736l15.276,17.986
					c0.082,0.096,0.124,0.219,0.119,0.345l-1.314,34.816c-0.047,1.235,0.944,2.26,2.18,2.256l8.613-0.029
					C84.352,336.917,85.274,335.923,85.191,334.755z"/>
			</g>
			<g>
				<path style="fill:#496E3F;" d="M-20.649,317.816c9.151,1.766,37.775,6.166,70.998-0.022c1.691-0.315,2.715-2.059,2.196-3.699
					L15.662,197.622c-0.863-2.724-4.737-2.664-5.516,0.084l-33.008,116.5C-23.321,315.826-22.302,317.497-20.649,317.816z"/>
				<path style="fill:#564538;" d="M21.147,338.458l-3.116-43.861c-0.008-0.11,0.026-0.218,0.095-0.304l12.588-15.575
					c0.32-0.395-0.184-0.923-0.594-0.623l-11.711,8.588c-0.277,0.203-0.669,0.02-0.69-0.323l-2.131-34.309
					c-0.033-0.532-0.811-0.548-0.865-0.017l-1.648,16.113c-0.033,0.321-0.392,0.495-0.665,0.322l-5.391-3.431
					c-0.416-0.265-0.882,0.26-0.569,0.641l6.197,7.552c0.068,0.083,0.103,0.188,0.098,0.295l-1.21,26.872
					c-0.016,0.344-0.406,0.534-0.686,0.334l-12.297-8.784c-0.416-0.297-0.914,0.244-0.583,0.634l13.17,15.507
					c0.07,0.083,0.107,0.189,0.103,0.297l-1.133,30.016c-0.04,1.065,0.814,1.949,1.879,1.945l7.426-0.025
					C20.423,340.321,21.218,339.464,21.147,338.458z"/>
			</g>
			<g>
				<path style="fill:#496E3F;" d="M471.915,314.819c-12.918,2.492-53.325,8.704-100.225-0.031c-2.388-0.445-3.833-2.906-3.1-5.222
					l52.066-164.42c1.217-3.845,6.687-3.761,7.786,0.119l46.596,164.457C475.687,312.009,474.249,314.368,471.915,314.819z"/>
				<path style="fill:#564538;" d="M412.914,343.957l4.398-61.916c0.011-0.155-0.037-0.308-0.135-0.428l-17.769-21.986
					c-0.451-0.558,0.26-1.304,0.839-0.879l16.532,12.123c0.391,0.287,0.944,0.027,0.974-0.456l3.008-48.433
					c0.047-0.751,1.145-0.773,1.221-0.024l2.326,22.746c0.046,0.453,0.554,0.699,0.939,0.455l7.61-4.843
					c0.588-0.374,1.245,0.367,0.803,0.906l-8.747,10.661c-0.096,0.117-0.145,0.265-0.138,0.416l1.709,37.934
					c0.022,0.485,0.573,0.753,0.968,0.471l17.359-12.4c0.587-0.42,1.29,0.345,0.823,0.895l-18.592,21.89
					c-0.099,0.117-0.151,0.267-0.145,0.42l1.599,42.372c0.057,1.503-1.149,2.751-2.653,2.746l-10.482-0.035
					C413.936,346.588,412.813,345.379,412.914,343.957z"/>
			</g>
			<g>
				<path style="fill:#879D59;" d="M388.139,290.044c-9.151,1.766-37.775,6.166-70.998-0.022c-1.691-0.315-2.715-2.059-2.196-3.699
					l36.883-116.474c0.862-2.724,4.737-2.664,5.516,0.084l33.008,116.5C390.811,288.053,389.792,289.725,388.139,290.044z"/>
				<path style="fill:#564538;" d="M346.343,310.685l3.116-43.861c0.008-0.11-0.026-0.218-0.095-0.304l-12.588-15.575
					c-0.32-0.395,0.184-0.924,0.594-0.623l11.711,8.588c0.277,0.203,0.669,0.02,0.69-0.323l2.131-34.309
					c0.033-0.532,0.811-0.548,0.865-0.017l1.648,16.113c0.033,0.321,0.393,0.495,0.665,0.322l5.391-3.431
					c0.416-0.265,0.882,0.26,0.569,0.642l-6.197,7.552c-0.068,0.083-0.103,0.188-0.098,0.295l1.211,26.872
					c0.015,0.344,0.406,0.534,0.686,0.334l12.297-8.784c0.416-0.297,0.914,0.244,0.583,0.634l-13.17,15.507
					c-0.07,0.083-0.107,0.189-0.103,0.297l1.133,30.016c0.04,1.065-0.814,1.949-1.879,1.945l-7.426-0.025
					C347.067,312.549,346.272,311.692,346.343,310.685z"/>
			</g>
			<g>
				<path style="fill:#879D59;" d="M524.818,318.91c-9.151,1.766-37.775,6.166-70.998-0.022c-1.691-0.315-2.715-2.059-2.196-3.699
					l36.883-116.474c0.863-2.724,4.737-2.664,5.516,0.084l33.008,116.5C527.49,316.919,526.471,318.591,524.818,318.91z"/>
				<path style="fill:#564538;" d="M483.022,339.552l3.116-43.861c0.008-0.11-0.026-0.218-0.095-0.304l-12.588-15.574
					c-0.32-0.395,0.184-0.924,0.594-0.623l11.711,8.588c0.277,0.203,0.669,0.02,0.69-0.323l2.131-34.309
					c0.033-0.532,0.811-0.548,0.865-0.017l1.648,16.113c0.033,0.321,0.392,0.495,0.665,0.322l5.391-3.431
					c0.416-0.265,0.882,0.26,0.569,0.642l-6.197,7.552c-0.068,0.083-0.103,0.188-0.098,0.295l1.21,26.872
					c0.015,0.344,0.406,0.534,0.686,0.334l12.297-8.784c0.416-0.297,0.914,0.244,0.583,0.634l-13.17,15.507
					c-0.07,0.083-0.107,0.189-0.103,0.297l1.133,30.016c0.04,1.065-0.814,1.949-1.879,1.945l-7.426-0.025
					C483.746,341.415,482.951,340.558,483.022,339.552z"/>
			</g>
		</g>
		<g style="clip-path:url(#_x3C_Path_x3E__00000175325057272582574520000008655140749153364396_);">
			<path style="fill:#3F6583;" d="M-23.591,108.664H88.651c3.108,0,4.766-3.738,2.617-5.983c-2.327-2.43-6.344-4.344-13.207-2.803
				c0,0-5.005-14.425-21.785-5.593c0,0-2.526-12.852-15.48-14.324c-12.953-1.472-18.67,9.908-18.67,9.908
				S21.832,76.621,6.229,77.504C-9.374,78.387-9.08,93.107-7.019,94.579c0,0-15.536-7.02-21.094,7.449
				C-29.34,105.223-27.013,108.664-23.591,108.664z"/>
			<path style="fill:#3F6583;" d="M333.91,54.447h112.242c3.108,0,4.766-3.738,2.617-5.983c-2.327-2.43-6.344-4.344-13.207-2.803
				c0,0-5.005-14.425-21.785-5.593c0,0-2.526-12.852-15.48-14.324c-12.953-1.472-18.67,9.908-18.67,9.908
				s-0.294-13.248-15.897-12.365c-15.603,0.883-15.309,15.603-13.248,17.075c0,0-15.536-7.02-21.094,7.449
				C328.162,51.006,330.488,54.447,333.91,54.447z"/>
			<path style="fill:#3F6583;" d="M441.679,119.73h102.889c2.942,0,4.472-3.471,2.52-5.671c-2.074-2.337-5.227-3.937-9.621-1.232
				c0,0-3.452-13.807-13.806-14.497c-10.355-0.69-14.497,8.974-14.497,8.974s-2.211-17.119-19.329-16.568
				c-16.867,0.543-17.948,16.913-17.948,16.913s-5.078-8.457-14.497-3.106c-5.52,3.136-4.487,10.355-4.487,10.355
				s-9.029-5.857-13.545,0.076C437.873,116.922,439.23,119.73,441.679,119.73z"/>
		</g>
		<g style="clip-path:url(#_x3C_Path_x3E__00000175325057272582574520000008655140749153364396_);">
			<circle style="opacity:0.05;fill:#E3E1AE;" cx="191.192" cy="79.266" r="49.735"/>
			
				<ellipse transform="matrix(0.2339 -0.9723 0.9723 0.2339 69.4013 246.6112)" style="opacity:0.15;fill:#E3E1AE;" cx="191.192" cy="79.266" rx="41.71" ry="41.71"/>
			
				<ellipse transform="matrix(0.1619 -0.9868 0.9868 0.1619 82.0247 255.1065)" style="fill:#E3E1AE;" cx="191.192" cy="79.266" rx="33.367" ry="33.367"/>
		</g>
		<g style="clip-path:url(#_x3C_Path_x3E__00000175325057272582574520000008655140749153364396_);">
			<path style="fill:#E3E1AE;" d="M322.653,175.794c0,1.553-1.259,2.812-2.812,2.812c-1.553,0-2.813-1.259-2.813-2.812
				c0-1.553,1.259-2.812,2.813-2.812C321.394,172.982,322.653,174.241,322.653,175.794z"/>
			<path style="fill:#E3E1AE;" d="M473.08,33.827c0,1.117-0.906,2.023-2.023,2.023s-2.023-0.906-2.023-2.023
				s0.906-2.023,2.023-2.023S473.08,32.71,473.08,33.827z"/>
			<circle style="fill:#E3E1AE;" cx="297.388" cy="84.12" r="4.046"/>
			<path style="fill:#E3E1AE;" d="M469.874,152.924c0,1.117-0.906,2.023-2.023,2.023c-1.117,0-2.023-0.906-2.023-2.023
				c0-1.117,0.906-2.023,2.023-2.023C468.968,150.902,469.874,151.807,469.874,152.924z"/>
			<circle style="fill:#E3E1AE;" cx="100.246" cy="58.254" r="4.046"/>
			<path style="fill:#E3E1AE;" d="M385.792,105.547c0,1.117-0.906,2.023-2.023,2.023c-1.117,0-2.023-0.906-2.023-2.023
				c0-1.117,0.906-2.023,2.023-2.023C384.886,103.524,385.792,104.43,385.792,105.547z"/>
			<path style="fill:#E3E1AE;" d="M31.598,19.392c0,1.117-0.906,2.023-2.023,2.023c-1.117,0-2.023-0.906-2.023-2.023
				c0-1.117,0.906-2.023,2.023-2.023C30.692,17.37,31.598,18.275,31.598,19.392z"/>
			<path style="fill:#E3E1AE;" d="M183.494,166.905c0,1.117-0.906,2.023-2.023,2.023s-2.023-0.906-2.023-2.023
				s0.906-2.023,2.023-2.023S183.494,165.788,183.494,166.905z"/>
			<path style="fill:#E3E1AE;" d="M260.57,25.183c0,1.117-0.906,2.023-2.023,2.023c-1.117,0-2.023-0.906-2.023-2.023
				c0-1.117,0.906-2.023,2.023-2.023C259.664,23.16,260.57,24.066,260.57,25.183z"/>
			<path style="fill:#E3E1AE;" d="M42.007,193.628c0,1.117-0.906,2.023-2.023,2.023c-1.117,0-2.023-0.906-2.023-2.023
				c0-1.117,0.906-2.023,2.023-2.023C41.101,191.605,42.007,192.51,42.007,193.628z"/>
		</g>
		
			<path style="clip-path:url(#_x3C_Path_x3E__00000175325057272582574520000008655140749153364396_);fill:none;stroke:#634C49;stroke-width:0.5;stroke-linecap:round;stroke-linejoin:round;stroke-miterlimit:10;" d="
			M126.145,425.199c0,0-9.309-7.701-4.63-12.088c4.073-3.818,10.264,6.881,10.264,6.881s-8.502-18.968-0.717-22.246
			c7.785-3.278,5.327,20.486,5.327,20.486s3.409-6.968,7.17-4.889c4.432,2.449-3.483,9.806-3.483,9.806"/>
		
			<path style="clip-path:url(#_x3C_Path_x3E__00000175325057272582574520000008655140749153364396_);fill:none;stroke:#634C49;stroke-width:0.4233;stroke-linecap:round;stroke-linejoin:round;stroke-miterlimit:10;" d="
			M490.242,384.215c0,0-7.882-6.52-3.92-10.234c3.448-3.233,8.69,5.826,8.69,5.826s-7.198-16.06-0.607-18.835
			c6.591-2.775,4.51,17.345,4.51,17.345s2.886-5.899,6.071-4.139c3.753,2.074-2.949,8.302-2.949,8.302"/>
		
			<path style="clip-path:url(#_x3C_Path_x3E__00000175325057272582574520000008655140749153364396_);fill:none;stroke:#634C49;stroke-width:0.5;stroke-linecap:round;stroke-linejoin:round;stroke-miterlimit:10;" d="
			M383.485,434.356c0,0-7.511-6.214-3.736-9.753c3.286-3.081,8.281,5.552,8.281,5.552s-6.859-15.304-0.578-17.948
			c6.281-2.645,4.298,16.529,4.298,16.529s2.75-5.622,5.785-3.945c3.576,1.976-2.81,7.911-2.81,7.911"/>
		<g style="clip-path:url(#_x3C_Path_x3E__00000175325057272582574520000008655140749153364396_);">
			<path style="fill:#D4C8B7;" d="M437.687,300.459c-82.414-44.958-156.195-131.749-179.818-161.18
				c-4.04-5.033-11.7-5.031-15.74,0.003c-23.615,29.42-97.338,116.143-179.705,161.117c-4.743,2.59-7.73,7.523-7.73,12.927v34.428
				c0,8.17,6.623,14.792,14.792,14.792h361.027c8.17,0,14.793-6.623,14.793-14.793v-34.371
				C445.306,308.006,442.405,303.033,437.687,300.459z"/>
			<polygon style="fill:#BFB3A5;" points="139.327,331.532 360.673,331.532 359.04,362.382 141.554,362.382 			"/>
			<ellipse style="fill:#AD9F95;" cx="251.891" cy="344.307" rx="117.51" ry="12.944"/>
			<g>
				<path style="fill:#BFB3A5;" d="M242.797,317.876l-52.005,6.573c-2.086,0.264-3.991-1.214-4.255-3.3l-4.842-38.306
					c-0.264-2.086,1.214-3.991,3.3-4.255L237,272.014c2.086-0.264,3.991,1.214,4.255,3.3l4.842,38.306
					C246.361,315.707,244.884,317.612,242.797,317.876z"/>
				
					<path style="opacity:0.4;fill:none;stroke:#634C49;stroke-width:0.5;stroke-linecap:round;stroke-linejoin:round;stroke-miterlimit:10;" d="
					M203.679,311.059c-3.598,2.167-7.609,4.024-12.065,5.395"/>
				
					<path style="opacity:0.4;fill:none;stroke:#634C49;stroke-width:0.5;stroke-linecap:round;stroke-linejoin:round;stroke-miterlimit:10;" d="
					M231.148,276.811c0,0-5.218,16.006-19.319,28.296"/>
				
					<path style="opacity:0.4;fill:none;stroke:#634C49;stroke-width:0.5;stroke-linecap:round;stroke-linejoin:round;stroke-miterlimit:10;" d="
					M207.089,297.013c-4.37,5.906-9.622,11.173-14.294,10.837c-10.406-0.747,9.853-13.413,6.492-22.062"/>
				
					<path style="opacity:0.4;fill:none;stroke:#634C49;stroke-width:0.5;stroke-linecap:round;stroke-linejoin:round;stroke-miterlimit:10;" d="
					M216.486,281.552c0,0-2.48,5.048-6.135,10.721"/>
				
					<path style="opacity:0.4;fill:none;stroke:#634C49;stroke-width:0.5;stroke-linecap:round;stroke-linejoin:round;stroke-miterlimit:10;" d="
					M234.149,309.614c-2.944,3.76-8.255,5.573-8.255,5.573"/>
				
					<path style="opacity:0.4;fill:none;stroke:#634C49;stroke-width:0.5;stroke-linecap:round;stroke-linejoin:round;stroke-miterlimit:10;" d="
					M236.626,292.411c0,0-2.977,1.269-0.825,9.965c0.362,1.462,0.322,2.795,0.005,4.001"/>
			</g>
			<g>
				<path style="fill:#BFB3A5;" d="M318.13,272.061l-52.419-0.129c-2.103-0.005-3.812,1.695-3.817,3.798l-0.095,38.611
					c-0.005,2.103,1.695,3.812,3.798,3.817l52.419,0.129c2.103,0.005,3.812-1.695,3.817-3.798l0.095-38.611
					C321.933,273.775,320.233,272.066,318.13,272.061z"/>
				
					<path style="opacity:0.4;fill:none;stroke:#634C49;stroke-width:0.5;stroke-linecap:round;stroke-linejoin:round;stroke-miterlimit:10;" d="
					M280.146,283.636c-3.838-1.708-8.046-3.058-12.637-3.871"/>
				
					<path style="opacity:0.4;fill:none;stroke:#634C49;stroke-width:0.5;stroke-linecap:round;stroke-linejoin:round;stroke-miterlimit:10;" d="
					M311.618,314.246c0,0-7.146-15.243-22.652-25.706"/>
				
					<path style="opacity:0.4;fill:none;stroke:#634C49;stroke-width:0.5;stroke-linecap:round;stroke-linejoin:round;stroke-miterlimit:10;" d="
					M285.258,297.156c-5.063-5.324-10.923-9.905-15.518-8.997c-10.235,2.021,11.428,12.1,9.155,21.096"/>
				
					<path style="opacity:0.4;fill:none;stroke:#634C49;stroke-width:0.5;stroke-linecap:round;stroke-linejoin:round;stroke-miterlimit:10;" d="
					M296.485,311.345c0,0-3.081-4.704-7.407-9.886"/>
				
					<path style="opacity:0.4;fill:none;stroke:#634C49;stroke-width:0.5;stroke-linecap:round;stroke-linejoin:round;stroke-miterlimit:10;" d="
					M310.563,281.324c-3.384-3.37-8.878-4.516-8.878-4.516"/>
				
					<path style="opacity:0.4;fill:none;stroke:#634C49;stroke-width:0.5;stroke-linecap:round;stroke-linejoin:round;stroke-miterlimit:10;" d="
					M315.136,298.092c0,0-3.111-0.894-2.044-9.788c0.179-1.496-0.024-2.814-0.487-3.971"/>
			</g>
			<path style="fill:#F0E7DC;" d="M401.58,362.382l-25.915-72.015L251.628,166.829l0.072-3.314l-1.7,1.693l-1.7-1.693l0.072,3.314
				L124.335,290.366L98.42,362.382h42.837l-4.287-56.691c76.644-13.035,106.984-95.645,113.03-114.777
				c6.046,19.132,36.385,101.742,113.029,114.777l-4.287,56.691H401.58z"/>
			<path style="fill:#FFFEFF;" d="M430.513,362.546c8.17,0,14.793-6.623,14.793-14.793v-34.372c0-5.376-2.901-10.349-7.62-12.923
				c-84.7-46.205-160.281-136.596-181.667-163.495c-3.081-3.876-8.959-3.874-12.041,0.002
				c-21.378,26.889-96.902,117.211-181.555,163.433c-4.743,2.59-7.73,7.523-7.73,12.927v34.428c0,8.17,6.623,14.792,14.792,14.792
				l48.579,0c4.494-4.494,9.368-36.827,11.24-51.671c0.589-4.672,3.13-8.889,7.057-11.486
				c54.284-35.903,94.604-92.216,108.158-112.636c2.357-3.55,7.561-3.552,9.92-0.003c13.572,20.417,53.946,76.734,108.232,112.639
				c3.927,2.598,6.468,6.815,7.057,11.486c1.872,14.844,6.354,47.172,10.848,51.666L430.513,362.546z"/>
			
				<path style="opacity:0.4;fill:none;stroke:#634C49;stroke-width:0.5;stroke-linecap:round;stroke-linejoin:round;stroke-miterlimit:10;" d="
				M259.987,207.936c0,0,20.493,54.387,91.433,90.644"/>
			
				<path style="opacity:0.4;fill:none;stroke:#634C49;stroke-width:0.5;stroke-linecap:round;stroke-linejoin:round;stroke-miterlimit:10;" d="
				M242.814,195.343c0,0-40.616,84.877-92.167,99.978"/>
			
				<path style="opacity:0.4;fill:none;stroke:#634C49;stroke-width:0.5;stroke-linecap:round;stroke-linejoin:round;stroke-miterlimit:10;" d="
				M132.943,316.149c-0.521,1.562,0.521,43.219,0.521,43.219"/>
			
				<path style="opacity:0.4;fill:none;stroke:#634C49;stroke-width:0.5;stroke-linecap:round;stroke-linejoin:round;stroke-miterlimit:10;" d="
				M128.316,336.205c0,0,0.244,19.009-3.656,23.396"/>
			
				<path style="opacity:0.4;fill:none;stroke:#634C49;stroke-width:0.5;stroke-linecap:round;stroke-linejoin:round;stroke-miterlimit:10;" d="
				M365.759,320.271c0,1.878-0.376,34.182-0.376,34.182"/>
			
				<path style="opacity:0.4;fill:none;stroke:#634C49;stroke-width:0.5;stroke-linecap:round;stroke-linejoin:round;stroke-miterlimit:10;" d="
				M369.429,332.622c0,0,1.134,17.696,6.126,24.956"/>
			<path style="opacity:0.3;fill:#F0E7DC;" d="M243.979,136.965c-21.378,26.889-96.902,117.211-181.555,163.433
				c-4.743,2.59-7.73,7.524-7.73,12.927v34.428c0,8.17,6.623,14.792,14.792,14.792h19.556l3.121-55.559c0,0,0-5.157,65.565-51.568
				c55.862-39.542,84.558-103.321,91.829-121.337C247.469,134.201,245.418,135.155,243.979,136.965z"/>
			<path style="opacity:0.3;fill:#F0E7DC;" d="M256.17,136.543c21.378,26.889,96.902,117.211,181.555,163.433
				c4.743,2.59,7.73,7.524,7.73,12.927v34.428c0,8.17-6.623,14.792-14.793,14.792h-19.556l-3.121-55.559c0,0,0-5.157-65.565-51.568
				c-55.862-39.543-84.558-103.321-91.83-121.337C252.68,133.779,254.731,134.732,256.17,136.543z"/>
			<g>
				<path style="fill:#F7BA51;" d="M268.152,285.563l-33.319-4.533c-1.337-0.182-2.608,1.062-2.839,2.779l-4.248,31.519
					c-0.231,1.717,0.665,3.256,2.001,3.438l33.319,4.533c1.337,0.182,2.608-1.062,2.839-2.779l4.248-31.519
					C270.385,287.284,269.489,285.745,268.152,285.563z"/>
				
					<path style="opacity:0.4;fill:none;stroke:#634C49;stroke-width:0.5;stroke-linecap:round;stroke-linejoin:round;stroke-miterlimit:10;" d="
					M242.743,291.806c-2.255-1.719-4.785-3.177-7.616-4.228"/>
				
					<path style="opacity:0.4;fill:none;stroke:#634C49;stroke-width:0.5;stroke-linecap:round;stroke-linejoin:round;stroke-miterlimit:10;" d="
					M259.436,319.458c0,0-2.891-13.05-11.616-22.903"/>
				
					<path style="opacity:0.4;fill:none;stroke:#634C49;stroke-width:0.5;stroke-linecap:round;stroke-linejoin:round;stroke-miterlimit:10;" d="
					M244.527,303.278c-2.642-4.775-5.872-9.01-8.892-8.657c-6.727,0.785,5.954,10.845,3.533,17.999"/>
				
					<path style="opacity:0.4;fill:none;stroke:#634C49;stroke-width:0.5;stroke-linecap:round;stroke-linejoin:round;stroke-miterlimit:10;" d="
					M250.127,315.811c0,0-1.449-4.102-3.638-8.698"/>
				
					<path style="opacity:0.4;fill:none;stroke:#634C49;stroke-width:0.5;stroke-linecap:round;stroke-linejoin:round;stroke-miterlimit:10;" d="
					M262.335,292.487c-1.786-3.038-5.155-4.437-5.155-4.437"/>
				
					<path style="opacity:0.4;fill:none;stroke:#634C49;stroke-width:0.5;stroke-linecap:round;stroke-linejoin:round;stroke-miterlimit:10;" d="
					M263.425,306.565c0,0-1.881-0.992-0.238-8.164c0.276-1.206,0.29-2.299,0.121-3.284"/>
			</g>
			<g>
				<path style="fill:#A08972;" d="M336.454,350.487H163.545c-4.472,0-8.097-3.625-8.097-8.097v-19.849
					c0-4.472,3.625-8.097,8.097-8.097h172.909c4.472,0,8.097,3.625,8.097,8.097v19.849
					C344.552,346.861,340.926,350.487,336.454,350.487z"/>
				
					<line style="opacity:0.5;fill:none;stroke:#634C49;stroke-width:0.5;stroke-linecap:round;stroke-linejoin:round;stroke-miterlimit:10;" x1="181.384" y1="346.376" x2="167.545" y2="346.376"/>
				
					<line style="opacity:0.5;fill:none;stroke:#634C49;stroke-width:0.5;stroke-linecap:round;stroke-linejoin:round;stroke-miterlimit:10;" x1="218.878" y1="346.376" x2="200.131" y2="346.376"/>
				
					<polyline style="opacity:0.5;fill:none;stroke:#634C49;stroke-width:0.5;stroke-linecap:round;stroke-linejoin:round;stroke-miterlimit:10;" points="
					332.025,346.376 312.878,346.376 296.006,346.376 266.547,346.376 243.784,346.376 				"/>
				
					<line style="opacity:0.5;fill:none;stroke:#634C49;stroke-width:0.5;stroke-linecap:round;stroke-linejoin:round;stroke-miterlimit:10;" x1="340.122" y1="326.316" x2="340.122" y2="338.279"/>
				
					<polyline style="opacity:0.5;fill:none;stroke:#634C49;stroke-width:0.5;stroke-linecap:round;stroke-linejoin:round;stroke-miterlimit:10;" points="
					270.56,318.218 284.398,318.218 307.277,318.218 				"/>
				
					<polyline style="opacity:0.5;fill:none;stroke:#634C49;stroke-width:0.5;stroke-linecap:round;stroke-linejoin:round;stroke-miterlimit:10;" points="
					189.008,318.218 204.322,318.218 233.843,318.218 248.235,318.218 				"/>
				
					<path style="opacity:0.5;fill:none;stroke:#634C49;stroke-width:0.5;stroke-linecap:round;stroke-linejoin:round;stroke-miterlimit:10;" d="
					M159.448,338.279v-11.963c0-4.472,3.625-8.097,8.097-8.097"/>
			</g>
		</g>
		<g style="clip-path:url(#_x3C_Path_x3E__00000175325057272582574520000008655140749153364396_);">
			<g>
				<path style="fill:#564538;" d="M221.457,440.329c0,0,4.165-12.494,7.635-15.27l56.915,20.823l-7.172,21.054
					c0,0-41.182-20.36-57.146-22.442l6.247-1.851L221.457,440.329z"/>
				<path style="fill:#9A5B38;" d="M287.681,458.354c-2.196,5.789-6.107,9.674-8.735,8.677c-2.628-0.997-2.979-6.498-0.783-12.288
					c2.196-5.789,6.107-9.674,8.735-8.677C289.527,447.064,289.877,452.565,287.681,458.354z"/>
				
					<line style="fill:none;stroke:#3A302F;stroke-width:0.5;stroke-linecap:round;stroke-linejoin:round;stroke-miterlimit:10;" x1="238.609" y1="444.211" x2="229.993" y2="440.607"/>
				
					<polyline style="fill:none;stroke:#3A302F;stroke-width:0.5;stroke-linecap:round;stroke-linejoin:round;stroke-miterlimit:10;" points="
					269.052,456.948 262.094,454.036 249.025,448.569 				"/>
				<path style="fill:none;stroke:#3A302F;stroke-width:0.5;stroke-linecap:round;stroke-linejoin:round;stroke-miterlimit:10;" d="
					M273.101,458.642"/>
				
					<polyline style="fill:none;stroke:#3A302F;stroke-width:0.5;stroke-linecap:round;stroke-linejoin:round;stroke-miterlimit:10;" points="
					254.154,444.47 249.88,442.742 231.899,435.475 				"/>
				
					<line style="fill:none;stroke:#3A302F;stroke-width:0.5;stroke-linecap:round;stroke-linejoin:round;stroke-miterlimit:10;" x1="273.981" y1="452.483" x2="267.348" y2="449.803"/>
				
					<line style="fill:none;stroke:#3A302F;stroke-width:0.5;stroke-linecap:round;stroke-linejoin:round;stroke-miterlimit:10;" x1="239.754" y1="433.256" x2="231.313" y2="430.196"/>
				
					<polyline style="fill:none;stroke:#3A302F;stroke-width:0.5;stroke-linecap:round;stroke-linejoin:round;stroke-miterlimit:10;" points="
					276.62,446.618 269.742,444.125 262.508,441.503 253.645,438.291 				"/>
				<path style="fill:none;stroke:#3A302F;stroke-width:0.5;stroke-miterlimit:10;" d="M287.229,453.744
					c0.262-1.38,0.308-2.591,0.133-3.49c-0.155-0.791-0.481-1.34-0.985-1.549c-0.755-0.314-1.773,0.195-2.829,1.281
					c-0.42,0.432-0.846,0.956-1.264,1.556c-0.421,0.604-0.834,1.286-1.224,2.029"/>
				<path style="fill:none;stroke:#3A302F;stroke-width:0.5;stroke-miterlimit:10;" d="M280.18,455.449
					c-0.5,1.203-0.876,2.385-1.127,3.479c-0.308,1.348-0.425,2.565-0.345,3.53c0.092,1.108,0.444,1.883,1.065,2.141
					c0.8,0.332,1.893-0.257,3.015-1.478c0.71-0.773,1.431-1.799,2.096-3.005"/>
				<path style="fill:none;stroke:#3A302F;stroke-width:0.5;stroke-miterlimit:10;" d="M284.107,457.363
					c0.335-0.806,0.617-1.586,0.838-2.301c0.221-0.715,0.382-1.365,0.475-1.912c0.162-0.951,0.118-1.588-0.17-1.708"/>
				<path style="fill:none;stroke:#3A302F;stroke-width:0.5;stroke-miterlimit:10;" d="M282.946,454.128
					c-0.365,0.682-0.735,1.462-1.084,2.302c-1.252,3.012-1.763,5.663-1.143,5.921c0.475,0.197,1.477-1.067,2.482-3.024"/>
			</g>
			<g>
				<path style="fill:#665142;" d="M276.405,427.564c0,0,5.614,11.913,5.021,16.317l-55.548,24.236l-9.349-20.182
					c0,0,43.848-13.708,56.833-23.224l-3.241,5.652L276.405,427.564z"/>
				<path style="fill:#9A5B38;" d="M216.384,460.061c-2.359-5.679-2.168-11.157,0.428-12.235c2.596-1.079,6.613,2.651,8.973,8.329
					c2.359,5.679,2.168,11.157-0.428,12.235C222.761,469.469,218.743,465.74,216.384,460.061z"/>
				
					<line style="fill:none;stroke:#3A302F;stroke-width:0.5;stroke-linecap:round;stroke-linejoin:round;stroke-miterlimit:10;" x1="265.367" y1="445.821" x2="273.983" y2="442.216"/>
				
					<polyline style="fill:none;stroke:#3A302F;stroke-width:0.5;stroke-linecap:round;stroke-linejoin:round;stroke-miterlimit:10;" points="
					234.924,458.557 241.883,455.646 254.952,450.178 				"/>
				<path style="fill:none;stroke:#3A302F;stroke-width:0.5;stroke-linecap:round;stroke-linejoin:round;stroke-miterlimit:10;" d="
					M230.875,460.251"/>
				
					<polyline style="fill:none;stroke:#3A302F;stroke-width:0.5;stroke-linecap:round;stroke-linejoin:round;stroke-miterlimit:10;" points="
					249.822,446.079 254.097,444.351 272.077,437.084 				"/>
				
					<line style="fill:none;stroke:#3A302F;stroke-width:0.5;stroke-linecap:round;stroke-linejoin:round;stroke-miterlimit:10;" x1="229.995" y1="454.093" x2="236.628" y2="451.412"/>
				
					<line style="fill:none;stroke:#3A302F;stroke-width:0.5;stroke-linecap:round;stroke-linejoin:round;stroke-miterlimit:10;" x1="264.223" y1="434.865" x2="272.664" y2="431.805"/>
				
					<polyline style="fill:none;stroke:#3A302F;stroke-width:0.5;stroke-linecap:round;stroke-linejoin:round;stroke-miterlimit:10;" points="
					227.356,448.228 234.234,445.734 241.468,443.112 250.331,439.9 				"/>
				<path style="fill:none;stroke:#3A302F;stroke-width:0.5;stroke-miterlimit:10;" d="M216.748,455.353
					c-0.262-1.38-0.308-2.591-0.133-3.49c0.155-0.791,0.481-1.34,0.985-1.549c0.755-0.314,1.773,0.195,2.829,1.281
					c0.42,0.432,0.846,0.956,1.264,1.556c0.421,0.604,0.834,1.286,1.224,2.029"/>
				<path style="fill:none;stroke:#3A302F;stroke-width:0.5;stroke-miterlimit:10;" d="M223.796,457.059
					c0.5,1.203,0.877,2.384,1.127,3.479c0.308,1.348,0.425,2.565,0.345,3.53c-0.092,1.108-0.444,1.883-1.065,2.141
					c-0.8,0.332-1.893-0.257-3.015-1.478c-0.71-0.773-1.431-1.799-2.096-3.005"/>
				<path style="fill:none;stroke:#3A302F;stroke-width:0.5;stroke-miterlimit:10;" d="M219.869,458.972
					c-0.335-0.806-0.617-1.586-0.838-2.301c-0.221-0.715-0.382-1.366-0.476-1.912c-0.162-0.951-0.118-1.588,0.17-1.708"/>
				<path style="fill:none;stroke:#3A302F;stroke-width:0.5;stroke-miterlimit:10;" d="M221.03,455.737
					c0.365,0.682,0.735,1.462,1.084,2.302c1.252,3.012,1.764,5.663,1.143,5.921c-0.475,0.197-1.477-1.067-2.482-3.024"/>
			</g>
			<g>
				
					<ellipse transform="matrix(0.158 -0.9874 0.9874 0.158 -171.8672 579.85)" style="opacity:0.15;fill:#F9DB98;" cx="254.078" cy="390.704" rx="43.863" ry="43.863"/>
				<circle style="opacity:0.3;fill:#F9DB98;" cx="254.078" cy="390.704" r="36.787"/>
				
					<ellipse transform="matrix(0.9727 -0.2321 0.2321 0.9727 -83.7322 69.6284)" style="opacity:0.3;fill:#F9DB98;" cx="254.078" cy="390.704" rx="23.289" ry="23.289"/>
				<path style="fill:#F7BA51;" d="M270.852,441.648c-7.448,6.799-18.905,8.527-28.137,3.819
					c-5.866-2.992-11.923-8.109-15.129-16.857c-7.128-19.447,7.109-28.235,5.932-43.5c-0.05-0.644,0.838-0.971,1.279-0.462
					c2.021,2.334,5.432,6.552,6.564,9.658c0.203,0.556,1.045,0.612,1.329,0.085c3.138-5.819,12.74-25.101,8.767-36.423
					c-0.201-0.574,0.462-1.08,1.038-0.773c5.392,2.866,21.278,12.398,19.351,24.333c-1.939,12.011-7.297,15.721-6.659,20.425
					c0.09,0.666,1.124,0.785,1.401,0.162c0.951-2.138,3.235-5.577,8.645-8.655c0.581-0.331,1.292,0.184,1.084,0.773
					c-0.887,2.517-1.5,7.674,2.993,15.754C284.32,418.995,281.249,432.157,270.852,441.648z"/>
				<path style="fill:#E5A342;" d="M265.389,435.725c-5.69,5.301-14.921,5.945-21.445,1.487c-5.776-3.947-9.668-8.785-9.272-17.923
					c0.755-17.417,19.087-13.652,22.069-42.014c0.089-0.842,1.146-1.159,1.684-0.504c1.94,2.357,4.844,7.663,2.871,17.018
					c-2.497,11.839,0.414,16.115,1.134,16.957c0.101,0.118,0.226,0.207,0.372,0.258c0.764,0.266,3.423,0.692,6.39-4.655
					c0.382-0.689,1.39-0.65,1.703,0.073C272.957,411.183,277.224,424.699,265.389,435.725z"/>
				<path style="fill:#FF6633;" d="M255.579,407.722c-0.05-0.808-1.168-1.137-1.731-0.507c-2.116,2.369-5.521,6.169-7.85,8.712
					c-3.603,3.933-1.544,17.815,9.779,15.733C265.984,429.783,256.114,416.436,255.579,407.722z"/>
			</g>
		</g>
		<g style="clip-path:url(#_x3C_Path_x3E__00000175325057272582574520000008655140749153364396_);">
			<g>
				<path style="fill:none;stroke:#FFFFFF;stroke-width:0.5;stroke-miterlimit:10;" d="M82.943,123.182
					c144.226,66.716,328.482,1.543,328.482,1.543"/>
				<g>
					<path id="Lamp_part_00000000215272878598861680000015545718886747675271_" style="fill:#E5A342;" d="M122.8,143.064
						l-6.942-2.453l1.354-3.83c0.269-0.76,1.103-1.159,1.863-0.89l4.189,1.481c0.76,0.269,1.159,1.102,0.89,1.863L122.8,143.064z"/>
					<path id="Lamp_part_00000170990479309875981340000000687763520494301336_" style="fill:#F7BA51;" d="M124.739,151.884
						c-1.778,5.032-10.5,18.361-14.9,16.807c-4.4-1.555-2.811-17.405-1.032-22.437c1.778-5.032,6.786-7.851,11.186-6.296
						C124.392,141.512,126.517,146.852,124.739,151.884z"/>
					<path style="fill:none;stroke:#FFFFFF;stroke-width:0.5;stroke-linecap:round;stroke-miterlimit:10;" d="M123.141,151.729
						c-0.387,1.086-0.961,2.264-1.768,3.536"/>
					<path style="fill:none;stroke:#FFFFFF;stroke-width:0.5;stroke-linecap:round;stroke-miterlimit:10;" d="M120.208,141.425
						c0,0,4.089,2.374,3.558,7.619"/>
				</g>
				<g>
					<path id="Lamp_part_00000164484299758581074980000010748425743322736537_" style="fill:#E5A342;" d="M162.081,151.82
						l-7.285-1.071l0.591-4.019c0.117-0.798,0.859-1.349,1.657-1.232l4.396,0.646c0.798,0.117,1.349,0.859,1.232,1.656
						L162.081,151.82z"/>
					<path id="Lamp_part_00000014621192583599276560000003973753293411998605_" style="fill:#F7BA51;" d="M165.682,160.102
						c-0.776,5.28-6.77,20.039-11.386,19.36c-4.617-0.679-6.108-16.538-5.332-21.818c0.776-5.28,5.148-9.01,9.765-8.332
						C163.345,149.991,166.458,154.822,165.682,160.102z"/>
					<path style="fill:none;stroke:#FFFFFF;stroke-width:0.5;stroke-linecap:round;stroke-miterlimit:10;" d="M164.083,160.258
						c-0.171,1.14-0.507,2.406-1.054,3.81"/>
					<path style="fill:none;stroke:#FFFFFF;stroke-width:0.5;stroke-linecap:round;stroke-miterlimit:10;" d="M159.223,150.711
						c0,0,4.469,1.543,4.958,6.792"/>
				</g>
				<g>
					<path id="Lamp_part_00000149365907264262865190000000516694681607472266_" style="fill:#E5A342;" d="M210.042,157.269
						l-7.318-0.808l0.446-4.038c0.088-0.801,0.81-1.379,1.611-1.291l4.417,0.487c0.801,0.088,1.379,0.81,1.291,1.611
						L210.042,157.269z"/>
					<path id="Lamp_part_00000016761231714053850050000000400419570464192392_" style="fill:#F7BA51;" d="M213.939,165.415
						c-0.585,5.305-6.042,20.27-10.68,19.758c-4.638-0.512-6.701-16.307-6.115-21.612c0.585-5.305,4.82-9.19,9.458-8.679
						C211.239,155.395,214.525,160.11,213.939,165.415z"/>
					<path style="fill:none;stroke:#FFFFFF;stroke-width:0.5;stroke-linecap:round;stroke-miterlimit:10;" d="M212.348,165.629
						c-0.13,1.146-0.42,2.423-0.916,3.845"/>
					<path style="fill:none;stroke:#FFFFFF;stroke-width:0.5;stroke-linecap:round;stroke-miterlimit:10;" d="M207.145,156.264
						c0,0,4.522,1.381,5.2,6.609"/>
				</g>
				<g>
					<path id="Lamp_part_00000064338441221702659190000008570970476265430205_" style="fill:#E5A342;" d="M250.285,156.849
						l-7.337,0.616l-0.34-4.048c-0.067-0.803,0.529-1.509,1.333-1.577l4.428-0.372c0.803-0.068,1.509,0.529,1.577,1.332
						L250.285,156.849z"/>
					<path id="Lamp_part_00000129190961115721922610000016009983650445063598_" style="fill:#F7BA51;" d="M255.678,164.093
						c0.447,5.318-2.028,21.054-6.677,21.445c-4.65,0.391-9.714-14.712-10.161-20.031c-0.447-5.318,2.961-9.946,7.611-10.337
						C251.1,154.779,255.231,158.774,255.678,164.093z"/>
					<path style="fill:none;stroke:#FFFFFF;stroke-width:0.5;stroke-linecap:round;stroke-miterlimit:10;" d="M254.157,164.608
						c0.093,1.149,0.054,2.458-0.159,3.95"/>
					<path style="fill:none;stroke:#FFFFFF;stroke-width:0.5;stroke-linecap:round;stroke-miterlimit:10;" d="M247.249,156.42
						c0,0,4.703,0.485,6.374,5.484"/>
				</g>
				<g>
					<path id="Lamp_part_00000141445820290964487940000010994490002764729730_" style="fill:#E5A342;" d="M296.902,154.697
						l-7.353,0.369l-0.204-4.057c-0.04-0.805,0.579-1.491,1.385-1.531l4.438-0.223c0.805-0.04,1.491,0.579,1.531,1.385
						L296.902,154.697z"/>
					<path id="Lamp_part_00000172418532145686539120000004565951788007728056_" style="fill:#F7BA51;" d="M302.048,162.118
						c0.268,5.33-2.734,20.974-7.395,21.208c-4.66,0.234-9.214-15.031-9.482-20.361c-0.268-5.33,3.293-9.841,7.954-10.075
						C297.785,152.657,301.78,156.788,302.048,162.118z"/>
					<path style="fill:none;stroke:#FFFFFF;stroke-width:0.5;stroke-linecap:round;stroke-miterlimit:10;" d="M300.51,162.583
						c0.055,1.152-0.028,2.459-0.292,3.942"/>
					<path style="fill:none;stroke:#FFFFFF;stroke-width:0.5;stroke-linecap:round;stroke-miterlimit:10;" d="M293.882,154.167
						c0,0,4.684,0.643,6.186,5.696"/>
				</g>
				<g>
					<path id="Lamp_part_00000095320517208490278780000012733255297031948169_" style="fill:#E5A342;" d="M344.612,147.423
						l-7.356,0.313l-0.173-4.059c-0.034-0.805,0.591-1.486,1.396-1.52l4.439-0.189c0.805-0.034,1.486,0.591,1.52,1.396
						L344.612,147.423z"/>
					<path id="Lamp_part_00000039836759598078100320000009169133752333961102_" style="fill:#F7BA51;" d="M349.702,154.882
						c0.227,5.332-2.893,20.953-7.555,21.152c-4.662,0.199-9.1-15.1-9.328-20.432c-0.227-5.332,3.368-9.816,8.03-10.015
						C345.511,145.388,349.475,149.55,349.702,154.882z"/>
					<path style="fill:none;stroke:#FFFFFF;stroke-width:0.5;stroke-linecap:round;stroke-miterlimit:10;" d="M348.161,155.335
						c0.046,1.152-0.047,2.459-0.322,3.94"/>
					<path style="fill:none;stroke:#FFFFFF;stroke-width:0.5;stroke-linecap:round;stroke-miterlimit:10;" d="M341.597,146.869
						c0,0,4.679,0.678,6.143,5.742"/>
				</g>
				<g>
					<path id="Lamp_part_00000044894943377834663900000005389767992795646137_" style="fill:#E5A342;" d="M385.846,137.185
						l-7.053,2.114l-1.167-3.891c-0.232-0.772,0.207-1.586,0.979-1.817l4.256-1.276c0.772-0.232,1.586,0.207,1.817,0.979
						L385.846,137.185z"/>
					<path id="Lamp_part_00000131331563416625373900000002060421119024120712_" style="fill:#F7BA51;" d="M392.615,143.163
						c1.533,5.112,2.353,21.02-2.117,22.36c-4.47,1.34-12.536-12.396-14.069-17.508c-1.533-5.112,0.848-10.343,5.318-11.683
						C386.217,134.992,391.083,138.05,392.615,143.163z"/>
					<path style="fill:none;stroke:#FFFFFF;stroke-width:0.5;stroke-linecap:round;stroke-miterlimit:10;" d="M391.233,143.981
						c0.328,1.105,0.56,2.394,0.658,3.898"/>
					<path style="fill:none;stroke:#FFFFFF;stroke-width:0.5;stroke-linecap:round;stroke-miterlimit:10;" d="M382.787,137.391
						c0,0,4.702-0.494,7.367,4.054"/>
				</g>
			</g>
			<g>
				<path style="fill:none;stroke:#FFFFFF;stroke-width:0.5;stroke-miterlimit:10;" d="M408.66,127.345
					c135.524,70.57,330.493,3.761,330.493,3.761"/>
				<g>
					<path id="Lamp_part_00000154405401778369271650000013682964445618545572_" style="fill:#E5A342;" d="M450.528,149.446
						l-6.942-2.453l1.353-3.83c0.269-0.76,1.103-1.159,1.863-0.89l4.189,1.481c0.76,0.269,1.158,1.102,0.89,1.862L450.528,149.446z"
						/>
					<path id="Lamp_part_00000088837216570518506240000006455285060598218397_" style="fill:#F7BA51;" d="M452.468,158.266
						c-1.778,5.032-10.5,18.361-14.9,16.807c-4.4-1.555-2.811-17.405-1.032-22.437c1.778-5.032,6.786-7.851,11.186-6.297
						C452.121,147.894,454.246,153.233,452.468,158.266z"/>
					<path style="fill:none;stroke:#FFFFFF;stroke-width:0.5;stroke-linecap:round;stroke-miterlimit:10;" d="M450.869,158.111
						c-0.387,1.086-0.961,2.264-1.768,3.536"/>
					<path style="fill:none;stroke:#FFFFFF;stroke-width:0.5;stroke-linecap:round;stroke-miterlimit:10;" d="M447.937,147.807
						c0,0,4.089,2.375,3.558,7.619"/>
				</g>
				<g>
					<path id="Lamp_part_00000140011776624368198310000013279301919862934666_" style="fill:#E5A342;" d="M489.81,158.202
						l-7.284-1.071l0.591-4.019c0.117-0.798,0.859-1.349,1.657-1.232l4.396,0.646c0.798,0.117,1.349,0.859,1.232,1.657
						L489.81,158.202z"/>
					<path id="Lamp_part_00000104673493180057530270000018259353197453115534_" style="fill:#F7BA51;" d="M493.41,166.484
						c-0.776,5.28-6.77,20.039-11.386,19.36c-4.617-0.679-6.108-16.538-5.332-21.818c0.776-5.28,5.148-9.01,9.765-8.332
						C491.074,156.373,494.187,161.203,493.41,166.484z"/>
					<path style="fill:none;stroke:#FFFFFF;stroke-width:0.5;stroke-linecap:round;stroke-miterlimit:10;" d="M491.812,166.639
						c-0.171,1.14-0.507,2.406-1.054,3.81"/>
					<path style="fill:none;stroke:#FFFFFF;stroke-width:0.5;stroke-linecap:round;stroke-miterlimit:10;" d="M486.951,157.093
						c0,0,4.469,1.543,4.958,6.792"/>
				</g>
				<g>
					<path id="Lamp_part_00000031209136033010674390000005719722063065601468_" style="fill:#EDC75E;" d="M537.77,163.651
						l-7.318-0.807l0.446-4.038c0.088-0.801,0.81-1.379,1.611-1.291l4.417,0.488c0.801,0.088,1.379,0.81,1.291,1.611L537.77,163.651
						z"/>
					<path id="Lamp_part_00000059268031280751110880000004260207198484211638_" style="fill:#F7BA51;" d="M541.668,171.797
						c-0.585,5.305-6.042,20.27-10.68,19.758c-4.638-0.512-6.701-16.307-6.116-21.612c0.585-5.305,4.82-9.19,9.458-8.679
						C538.968,161.777,542.253,166.492,541.668,171.797z"/>
					<path style="fill:none;stroke:#FFFFFF;stroke-width:0.5;stroke-linecap:round;stroke-miterlimit:10;" d="M540.076,172.01
						c-0.13,1.146-0.42,2.423-0.916,3.845"/>
					<path style="fill:none;stroke:#FFFFFF;stroke-width:0.5;stroke-linecap:round;stroke-miterlimit:10;" d="M534.874,162.646
						c0,0,4.522,1.381,5.2,6.609"/>
				</g>
				<g>
					<path id="Lamp_part_00000111187953720140775010000018221273214009484170_" style="fill:#EDC75E;" d="M578.014,163.231
						l-7.337,0.616l-0.34-4.048c-0.068-0.803,0.529-1.509,1.333-1.577l4.428-0.372c0.803-0.068,1.509,0.529,1.577,1.332
						L578.014,163.231z"/>
					<path id="Lamp_part_00000076595515892400825870000005290554329624550808_" style="fill:#F7BA51;" d="M583.406,170.474
						c0.447,5.318-2.028,21.054-6.677,21.445c-4.65,0.391-9.714-14.712-10.161-20.031c-0.447-5.318,2.961-9.946,7.61-10.337
						C578.828,161.161,582.96,165.156,583.406,170.474z"/>
					<path style="fill:none;stroke:#FFFFFF;stroke-width:0.5;stroke-linecap:round;stroke-miterlimit:10;" d="M581.885,170.99
						c0.093,1.149,0.054,2.458-0.159,3.95"/>
					<path style="fill:none;stroke:#FFFFFF;stroke-width:0.5;stroke-linecap:round;stroke-miterlimit:10;" d="M574.978,162.801
						c0,0,4.703,0.485,6.374,5.484"/>
				</g>
				<g>
					<path id="Lamp_part_00000039826061784234501830000014831128909323912603_" style="fill:#EDC75E;" d="M624.63,161.079
						l-7.354,0.369l-0.204-4.057c-0.04-0.805,0.58-1.491,1.385-1.531l4.438-0.223c0.805-0.04,1.49,0.579,1.531,1.385L624.63,161.079
						z"/>
					<path id="Lamp_part_00000124162959046798070360000006858190668308926899_" style="fill:#DB9328;" d="M629.776,168.5
						c0.268,5.33-2.734,20.974-7.394,21.208c-4.66,0.234-9.214-15.031-9.482-20.361c-0.268-5.33,3.293-9.841,7.954-10.075
						C625.514,159.038,629.509,163.17,629.776,168.5z"/>
					<path style="fill:none;stroke:#FFFFFF;stroke-width:0.5;stroke-linecap:round;stroke-miterlimit:10;" d="M628.239,168.964
						c0.055,1.152-0.028,2.459-0.292,3.942"/>
					<path style="fill:none;stroke:#FFFFFF;stroke-width:0.5;stroke-linecap:round;stroke-miterlimit:10;" d="M621.611,160.548
						c0,0,4.684,0.643,6.186,5.695"/>
				</g>
				<g>
					<path id="Lamp_part_00000150820247171244136720000002203366347785239200_" style="fill:#EDC75E;" d="M672.341,153.804
						l-7.356,0.314l-0.173-4.059c-0.034-0.806,0.591-1.486,1.396-1.521l4.439-0.189c0.805-0.034,1.486,0.591,1.521,1.396
						L672.341,153.804z"/>
					<path id="Lamp_part_00000091698784526659025730000012529640336668268424_" style="fill:#DB9328;" d="M677.431,161.264
						c0.227,5.332-2.893,20.953-7.555,21.152c-4.662,0.199-9.1-15.1-9.328-20.432c-0.227-5.332,3.368-9.816,8.03-10.015
						C673.24,151.77,677.203,155.932,677.431,161.264z"/>
					<path style="fill:none;stroke:#FFFFFF;stroke-width:0.5;stroke-linecap:round;stroke-miterlimit:10;" d="M675.89,161.717
						c0.046,1.152-0.047,2.458-0.321,3.94"/>
					<path style="fill:none;stroke:#FFFFFF;stroke-width:0.5;stroke-linecap:round;stroke-miterlimit:10;" d="M669.326,153.251
						c0,0,4.679,0.678,6.143,5.742"/>
				</g>
				<g>
					<path id="Lamp_part_00000065075430260746832010000003256882868626992528_" style="fill:#EDC75E;" d="M713.575,143.567
						l-7.053,2.114l-1.167-3.891c-0.231-0.772,0.207-1.586,0.979-1.818l4.256-1.276c0.772-0.231,1.586,0.207,1.817,0.979
						L713.575,143.567z"/>
					<path id="Lamp_part_00000018199901316048682940000017542837582530604184_" style="fill:#DB9328;" d="M720.344,149.544
						c1.533,5.112,2.353,21.02-2.117,22.36c-4.47,1.34-12.536-12.396-14.069-17.508s0.848-10.343,5.318-11.683
						S718.811,144.432,720.344,149.544z"/>
					<path style="fill:none;stroke:#FFFFFF;stroke-width:0.5;stroke-linecap:round;stroke-miterlimit:10;" d="M718.962,150.362
						c0.328,1.105,0.56,2.395,0.658,3.898"/>
					<path style="fill:none;stroke:#FFFFFF;stroke-width:0.5;stroke-linecap:round;stroke-miterlimit:10;" d="M710.516,143.772
						c0,0,4.702-0.495,7.367,4.054"/>
				</g>
			</g>
			<g>
				<path style="fill:none;stroke:#FFFFFF;stroke-width:0.5;stroke-miterlimit:10;" d="M-247.55,119.421
					c151.44,69.874,328.712,5.594,328.712,5.594"/>
				<g>
					<path id="Lamp_part_00000137839919869372054070000015731008159247600059_" style="fill:#EDC75E;" d="M-205.682,141.521
						l-6.942-2.453l1.353-3.83c0.269-0.76,1.103-1.159,1.863-0.89l4.189,1.481c0.76,0.269,1.158,1.102,0.89,1.863L-205.682,141.521z
						"/>
					<path id="Lamp_part_00000041974194491793558610000005855522733395234440_" style="fill:#DB9328;" d="M-203.743,150.341
						c-1.778,5.032-10.5,18.361-14.9,16.807c-4.4-1.555-2.811-17.405-1.033-22.437c1.778-5.032,6.786-7.851,11.186-6.296
						C-204.089,139.969-201.964,145.309-203.743,150.341z"/>
					<path style="fill:none;stroke:#FFFFFF;stroke-width:0.5;stroke-linecap:round;stroke-miterlimit:10;" d="M-205.341,150.186
						c-0.387,1.086-0.961,2.264-1.768,3.536"/>
					<path style="fill:none;stroke:#FFFFFF;stroke-width:0.5;stroke-linecap:round;stroke-miterlimit:10;" d="M-208.273,139.882
						c0,0,4.089,2.375,3.558,7.619"/>
				</g>
				<g>
					<path id="Lamp_part_00000072988885748230460430000001632273861435599288_" style="fill:#EDC75E;" d="M-166.401,150.277
						l-7.284-1.071l0.591-4.019c0.117-0.798,0.859-1.349,1.657-1.232l4.396,0.646c0.798,0.117,1.349,0.859,1.232,1.656
						L-166.401,150.277z"/>
					<path id="Lamp_part_00000121995412831488404980000010868539229058214558_" style="fill:#DB9328;" d="M-162.8,158.559
						c-0.776,5.28-6.77,20.039-11.386,19.36c-4.617-0.679-6.108-16.538-5.332-21.818c0.776-5.28,5.148-9.01,9.765-8.332
						C-165.136,148.448-162.023,153.279-162.8,158.559z"/>
					<path style="fill:none;stroke:#FFFFFF;stroke-width:0.5;stroke-linecap:round;stroke-miterlimit:10;" d="M-164.398,158.715
						c-0.171,1.14-0.507,2.406-1.054,3.81"/>
					<path style="fill:none;stroke:#FFFFFF;stroke-width:0.5;stroke-linecap:round;stroke-miterlimit:10;" d="M-169.259,149.168
						c0,0,4.469,1.543,4.958,6.792"/>
				</g>
				<g>
					<path id="Lamp_part_00000100345208216466013050000009087545394745103527_" style="fill:#EDC75E;" d="M-118.44,155.726
						l-7.318-0.808l0.446-4.038c0.088-0.801,0.81-1.379,1.611-1.291l4.416,0.487c0.801,0.089,1.379,0.81,1.291,1.611
						L-118.44,155.726z"/>
					<path id="Lamp_part_00000004517286104878945710000003928455294302973068_" style="fill:#DB9328;" d="M-114.543,163.872
						c-0.585,5.305-6.042,20.27-10.68,19.758c-4.638-0.512-6.701-16.307-6.115-21.612c0.585-5.305,4.82-9.19,9.458-8.679
						C-117.242,153.852-113.957,158.567-114.543,163.872z"/>
					<path style="fill:none;stroke:#FFFFFF;stroke-width:0.5;stroke-linecap:round;stroke-miterlimit:10;" d="M-116.134,164.086
						c-0.13,1.146-0.42,2.423-0.916,3.845"/>
					<path style="fill:none;stroke:#FFFFFF;stroke-width:0.5;stroke-linecap:round;stroke-miterlimit:10;" d="M-121.336,154.721
						c0,0,4.522,1.381,5.2,6.609"/>
				</g>
				<g>
					<path id="Lamp_part_00000166649849801590865380000008952902582013224371_" style="fill:#EDC75E;" d="M-78.197,155.306
						l-7.337,0.616l-0.34-4.048c-0.067-0.803,0.529-1.509,1.333-1.577l4.428-0.372c0.803-0.068,1.509,0.529,1.577,1.332
						L-78.197,155.306z"/>
					<path id="Lamp_part_00000017476398547717175510000012347688223831351939_" style="fill:#DB9328;" d="M-72.804,162.55
						c0.447,5.318-2.028,21.054-6.677,21.445c-4.65,0.391-9.714-14.712-10.161-20.031c-0.447-5.318,2.961-9.946,7.611-10.337
						C-77.382,153.236-73.251,157.231-72.804,162.55z"/>
					<path style="fill:none;stroke:#FFFFFF;stroke-width:0.5;stroke-linecap:round;stroke-miterlimit:10;" d="M-74.325,163.065
						c0.093,1.149,0.054,2.458-0.159,3.95"/>
					<path style="fill:none;stroke:#FFFFFF;stroke-width:0.5;stroke-linecap:round;stroke-miterlimit:10;" d="M-81.232,154.877
						c0,0,4.703,0.485,6.374,5.484"/>
				</g>
				<g>
					<path id="Lamp_part_00000093151696528700070050000015614044204612063120_" style="fill:#EDC75E;" d="M-31.58,153.154
						l-7.354,0.369l-0.204-4.057c-0.04-0.805,0.58-1.491,1.385-1.531l4.438-0.223c0.805-0.04,1.49,0.579,1.531,1.385L-31.58,153.154
						z"/>
					<path id="Lamp_part_00000129177460356820952320000012507662037133526151_" style="fill:#DB9328;" d="M-26.434,160.575
						c0.268,5.33-2.734,20.974-7.394,21.208c-4.66,0.234-9.214-15.031-9.482-20.361c-0.268-5.33,3.293-9.841,7.954-10.075
						C-30.697,151.114-26.702,155.245-26.434,160.575z"/>
					<path style="fill:none;stroke:#FFFFFF;stroke-width:0.5;stroke-linecap:round;stroke-miterlimit:10;" d="M-27.972,161.04
						c0.055,1.152-0.028,2.459-0.292,3.942"/>
					<path style="fill:none;stroke:#FFFFFF;stroke-width:0.5;stroke-linecap:round;stroke-miterlimit:10;" d="M-34.6,152.624
						c0,0,4.684,0.643,6.186,5.696"/>
				</g>
				<g>
					<path id="Lamp_part_00000102524297430354609750000017441483151114058430_" style="fill:#E5A342;" d="M16.131,145.88
						l-7.356,0.314l-0.173-4.059c-0.034-0.806,0.591-1.486,1.396-1.521l4.439-0.189c0.805-0.034,1.486,0.591,1.52,1.396
						L16.131,145.88z"/>
					<path id="Lamp_part_00000067916977584619235280000010231604891263429563_" style="fill:#F7BA51;" d="M21.22,153.339
						c0.227,5.332-2.893,20.953-7.555,21.152c-4.662,0.199-9.1-15.1-9.327-20.432c-0.227-5.332,3.368-9.816,8.03-10.015
						C17.03,143.845,20.993,148.007,21.22,153.339z"/>
					<path style="fill:none;stroke:#FFFFFF;stroke-width:0.5;stroke-linecap:round;stroke-miterlimit:10;" d="M19.679,153.792
						c0.046,1.152-0.047,2.459-0.322,3.94"/>
					<path style="fill:none;stroke:#FFFFFF;stroke-width:0.5;stroke-linecap:round;stroke-miterlimit:10;" d="M13.115,145.326
						c0,0,4.679,0.678,6.143,5.742"/>
				</g>
				<g>
					<path id="Lamp_part_00000127733926400075121150000012833872591870999434_" style="fill:#E5A342;" d="M57.365,135.642
						l-7.053,2.114l-1.167-3.891c-0.232-0.772,0.207-1.586,0.979-1.817l4.256-1.276c0.772-0.232,1.586,0.207,1.817,0.979
						L57.365,135.642z"/>
					<path id="Lamp_part_00000075120805743637432470000012317641556362319518_" style="fill:#F7BA51;" d="M64.134,141.62
						c1.533,5.112,2.353,21.02-2.117,22.36c-4.47,1.34-12.537-12.396-14.069-17.508c-1.533-5.112,0.848-10.343,5.318-11.683
						C57.735,133.449,62.601,136.507,64.134,141.62z"/>
					<path style="fill:none;stroke:#FFFFFF;stroke-width:0.5;stroke-linecap:round;stroke-miterlimit:10;" d="M62.752,142.438
						c0.328,1.105,0.56,2.394,0.658,3.898"/>
					<path style="fill:none;stroke:#FFFFFF;stroke-width:0.5;stroke-linecap:round;stroke-miterlimit:10;" d="M54.306,135.848
						c0,0,4.702-0.494,7.367,4.054"/>
				</g>
			</g>
			<path style="fill:#9A5B38;" d="M84.942,385.29h-3.156c-1.576,0-2.854-1.278-2.854-2.854V124.818c0-1.576,1.278-2.854,2.854-2.854
				h3.156c1.576,0,2.854,1.278,2.854,2.854v257.617C87.796,384.012,86.518,385.29,84.942,385.29z"/>
			<path style="fill:#9A5B38;" d="M409.209,385.674h-3.156c-1.576,0-2.854-1.278-2.854-2.854V125.203
				c0-1.576,1.278-2.854,2.854-2.854h3.156c1.576,0,2.854,1.278,2.854,2.854V382.82
				C412.063,384.396,410.785,385.674,409.209,385.674z"/>
		</g>
		<g style="clip-path:url(#_x3C_Path_x3E__00000175325057272582574520000008655140749153364396_);">
			<g id="_x3C_Group_x3E_">
				<g id="_x3C_Path_x3E__00000182521080222106314950000016318657826374349189_">
					<path style="fill:#496E3F;" d="M78.784,485.884c-0.051-0.098-0.104-0.196-0.157-0.294c3.364-5.231,7.547-10.153,12.297-14.666
						c8.813-8.374,19.52-15.405,30.917-21.504c9.351-5.004,19.204-9.412,29.433-13.168c0.387-0.142,0.741,0.289,0.525,0.641
						c-3.657,5.932-5.587,9.584-8.411,14.515c-1.513,2.642-2.693,5.366-3.666,8.142c-0.057,0.163-0.204,0.277-0.377,0.29
						c-2.76,0.208-5.527,0.34-8.297,0.388c-0.513,0.009-0.585,0.74-0.085,0.852c2.422,0.542,4.845,1.084,7.267,1.626
						c0.243,0.054,0.387,0.3,0.319,0.539c-2.161,7.504-3.213,15.29-5.445,22.817c-0.058,0.197-0.247,0.329-0.452,0.316
						c-1.032-0.064-2.063-0.144-3.09-0.243c-2.712-0.262-5.474-0.643-8.168-0.352c-0.376,0.041-0.514,0.531-0.222,0.772
						c2.82,2.328,5.811,4.526,8.944,6.587c0.18,0.118,0.249,0.35,0.159,0.545c-8.301,18.005-28.517,34.967-50.393,42.436
						c-0.139,0.047-0.295,0.023-0.413-0.064c-6.966-5.158-9.397-13.192-9.631-20.793c-0.161-5.246,0.557-10.515,2.129-15.625
						c0.751-2.439,1.698-4.835,2.815-7.182c0.111-0.234,0.403-0.32,0.624-0.184c2.204,1.357,4.424,2.697,6.668,4.012
						c0.336,0.197,0.752-0.116,0.649-0.492C81.794,492.403,80.473,489.081,78.784,485.884z"/>
				</g>
				
					<path id="_x3C_Path_x3E__00000149353310089885764240000008908916665732414639_" style="fill:none;stroke:#879D59;stroke-width:0.5;stroke-linecap:round;stroke-miterlimit:10;" d="
					M79.333,534.136c0,0,15.22-49.498,49.005-80.259"/>
				
					<path id="_x3C_Path_x3E__00000160877523170015322540000011114530823454995366_" style="fill:none;stroke:#879D59;stroke-width:0.5;stroke-linecap:round;stroke-miterlimit:10;" d="
					M103.556,483.769c0,0,3.255-6.084,20.127-11.912"/>
				
					<path id="_x3C_Path_x3E__00000165936112293319570400000000636502885384917898_" style="fill:none;stroke:#879D59;stroke-width:0.5;stroke-linecap:round;stroke-miterlimit:10;" d="
					M93.884,501.477c0,0-6.02-9.964-3.298-22.037"/>
				
					<path id="_x3C_Path_x3E__00000174588042562347006520000009944172115318383029_" style="fill:none;stroke:#496E3F;stroke-width:0.5;stroke-linecap:round;stroke-miterlimit:10;" d="
					M85.953,517.067c0,0,5.522-4.443,20.302-8.615"/>
			</g>
			<g id="_x3C_Group_x3E__00000030479369902711157780000009552485358512078754_">
				<g id="_x3C_Path_x3E__00000092458287143627188280000010639487025464375467_">
					<path style="fill:#496E3F;" d="M-12.42,440.524c-0.063-0.09-0.128-0.182-0.192-0.272c2.685-5.61,6.221-11.015,10.37-16.086
						c7.699-9.409,17.444-17.721,27.991-25.195c8.653-6.132,17.879-11.736,27.559-16.739c0.367-0.189,0.771,0.195,0.601,0.57
						c-2.888,6.342-4.347,10.206-6.534,15.451c-1.172,2.811-2.002,5.661-2.621,8.536c-0.036,0.169-0.168,0.3-0.338,0.335
						c-2.712,0.551-5.442,1.027-8.183,1.421c-0.508,0.073-0.488,0.808,0.022,0.856c2.471,0.235,4.942,0.471,7.413,0.706
						c0.248,0.024,0.422,0.25,0.383,0.495c-1.208,7.715-1.279,15.571-2.554,23.318c-0.033,0.202-0.204,0.357-0.409,0.37
						c-1.032,0.065-2.065,0.115-3.096,0.144c-2.724,0.079-5.511,0.045-8.148,0.671c-0.368,0.087-0.443,0.591-0.124,0.793
						c3.089,1.958,6.33,3.765,9.697,5.419c0.193,0.095,0.291,0.316,0.226,0.521c-5.989,18.901-23.93,38.253-44.702,48.394
						c-0.132,0.064-0.29,0.06-0.417-0.012c-7.556-4.248-10.971-11.916-12.151-19.428c-0.815-5.185-0.76-10.502,0.162-15.768
						c0.44-2.514,1.081-5.01,1.896-7.477c0.081-0.246,0.36-0.367,0.596-0.26c2.356,1.071,4.726,2.124,7.117,3.148
						c0.358,0.153,0.732-0.209,0.583-0.569C-8.619,446.617-10.344,443.486-12.42,440.524z"/>
				</g>
				
					<path id="_x3C_Path_x3E__00000055669309233754795240000002796897809012341165_" style="fill:none;stroke:#879D59;stroke-width:0.5;stroke-linecap:round;stroke-miterlimit:10;" d="
					M-5.852,488.33c0,0,8.923-51.011,38.604-85.748"/>
				
					<path id="_x3C_Path_x3E__00000062872830663744925680000016083142983147599535_" style="fill:none;stroke:#879D59;stroke-width:0.5;stroke-linecap:round;stroke-miterlimit:10;" d="
					M11.895,435.334c0,0,2.47-6.443,18.482-14.331"/>
				
					<path id="_x3C_Path_x3E__00000033351769761111810630000012689965263655163025_" style="fill:none;stroke:#879D59;stroke-width:0.5;stroke-linecap:round;stroke-miterlimit:10;" d="
					M4.509,454.11c0,0-7.217-9.135-6.023-21.453"/>
				
					<path id="_x3C_Path_x3E__00000121256533257686336450000013550276951757759651_" style="fill:none;stroke:#496E3F;stroke-width:0.5;stroke-linecap:round;stroke-miterlimit:10;" d="
					M-1.414,470.569c0,0,4.925-5.098,19.068-11.082"/>
			</g>
			<g id="_x3C_Group_x3E__00000057112686422859656010000000248231861853629613_">
				<g id="_x3C_Path_x3E__00000099653491704789400370000013619383848030535327_">
					<path style="fill:#879D59;" d="M-2.1,480.753c-0.058-0.124-0.119-0.25-0.178-0.375c4.483-6.311,9.967-12.191,16.132-17.53
						c11.44-9.907,25.156-18.034,39.679-24.964c12.006-5.729,24.611-10.676,37.651-14.777c0.395-0.124,0.724,0.327,0.491,0.668
						c-4.999,7.315-7.626,11.779-11.464,17.818c-2.046,3.219-3.678,6.561-5.052,9.979c-0.064,0.16-0.216,0.267-0.389,0.272
						c-3.762,0.111-7.531,0.108-11.296-0.019c-0.514-0.017-0.623,0.713-0.127,0.848c3.303,0.901,6.606,1.802,9.909,2.703
						c0.24,0.066,0.374,0.319,0.294,0.555c-3.15,9.267-4.907,18.955-8.145,28.247c-0.067,0.193-0.261,0.316-0.465,0.294
						c-1.309-0.141-2.614-0.303-3.915-0.489c-3.44-0.493-6.938-1.146-10.386-0.889c-0.376,0.028-0.534,0.508-0.255,0.762
						c3.448,3.139,7.128,6.117,11.003,8.926c0.174,0.126,0.233,0.361,0.134,0.552c-11.341,21.959-37.51,41.94-65.195,49.97
						c-0.141,0.041-0.296,0.009-0.409-0.083c-8.402-6.814-10.973-16.963-10.827-26.444c0.101-6.533,1.296-13.043,3.545-19.306
						c1.087-3.027,2.421-5.987,3.968-8.874c0.122-0.228,0.418-0.301,0.632-0.155c2.766,1.885,5.555,3.749,8.378,5.58
						c0.326,0.212,0.758-0.082,0.674-0.462C1.326,489.2-0.144,484.907-2.1,480.753z"/>
				</g>
				
					<path id="_x3C_Path_x3E__00000020394964793202343820000017251982830164612489_" style="fill:none;stroke:#496E3F;stroke-width:0.5;stroke-linecap:round;stroke-miterlimit:10;" d="
					M-4.188,540.784c0,0,21.768-60.675,65.543-96.985"/>
				
					<path id="_x3C_Path_x3E__00000012469819107676470880000003667572269836263611_" style="fill:none;stroke:#496E3F;stroke-width:0.5;stroke-linecap:round;stroke-miterlimit:10;" d="
					M28.824,479.546c0,0,4.397-7.378,25.71-13.656"/>
				
					<path id="_x3C_Path_x3E__00000099646796214842365060000003018380398978349965_" style="fill:none;stroke:#496E3F;stroke-width:0.5;stroke-linecap:round;stroke-miterlimit:10;" d="
					M15.781,501.009c0,0-6.913-12.736-2.836-27.592"/>
				
					<path id="_x3C_Path_x3E__00000011002856015323897760000005531436942341417115_" style="fill:none;stroke:#496E3F;stroke-width:0.5;stroke-linecap:round;stroke-miterlimit:10;" d="
					M5.024,519.94c0,0,7.122-5.208,25.739-9.547"/>
			</g>
			<g id="_x3C_Group_x3E__00000067228440149430614630000011872409409821119363_">
				<g id="_x3C_Path_x3E__00000000933890473067707410000007345938563621165993_">
					<path style="fill:#879D59;" d="M111.649,509.623c-0.058-0.099-0.117-0.199-0.176-0.298c3.242-5.579,7.347-10.875,12.059-15.774
						c8.743-9.091,19.51-16.877,31.037-23.732c9.529-5.666,19.616-10.729,30.128-15.122c0.318-0.133,0.626,0.216,0.458,0.517
						c-3.594,6.45-5.435,10.355-8.163,15.658c-1.454,2.827-2.555,5.724-3.435,8.665c-0.041,0.138-0.159,0.238-0.302,0.255
						c-3.114,0.378-6.242,0.661-9.377,0.841c-0.428,0.025-0.463,0.639-0.041,0.714c2.81,0.497,5.62,0.994,8.429,1.491
						c0.204,0.036,0.335,0.236,0.286,0.438c-1.911,7.93-2.634,16.104-4.616,24.062c-0.041,0.165-0.193,0.282-0.364,0.279
						c-1.097-0.018-2.193-0.053-3.286-0.109c-2.893-0.148-5.845-0.424-8.688,0.05c-0.31,0.052-0.405,0.462-0.154,0.652
						c3.1,2.344,6.38,4.536,9.809,6.573c0.154,0.092,0.221,0.282,0.153,0.448c-7.745,19.086-27.949,37.656-50.317,46.423
						c-0.114,0.044-0.245,0.03-0.346-0.038c-7.491-5.017-10.395-13.245-10.993-21.126c-0.412-5.43,0.086-10.924,1.477-16.292
						c0.672-2.595,1.555-5.153,2.62-7.666c0.084-0.199,0.324-0.281,0.513-0.176c2.439,1.354,4.895,2.69,7.377,3.995
						c0.287,0.151,0.623-0.125,0.524-0.434C115.134,516.373,113.587,512.922,111.649,509.623z"/>
				</g>
				
					<path id="_x3C_Path_x3E__00000118378611470799063950000006424438093697129112_" style="fill:none;stroke:#496E3F;stroke-width:0.4167;stroke-linecap:round;stroke-miterlimit:10;" d="
					M114.473,559.605c0,0,13.461-52.01,47.037-85.469"/>
				
					<path id="_x3C_Path_x3E__00000119078704298651340330000003603946607205714591_" style="fill:none;stroke:#496E3F;stroke-width:0.4167;stroke-linecap:round;stroke-miterlimit:10;" d="
					M137.223,506.274c0,0,3.089-6.457,20.302-13.286"/>
				
					<path id="_x3C_Path_x3E__00000131360160243079650480000004990951440592954008_" style="fill:none;stroke:#496E3F;stroke-width:0.4167;stroke-linecap:round;stroke-miterlimit:10;" d="
					M128.027,525.077c0,0-6.705-10.046-4.448-22.685"/>
				
					<path id="_x3C_Path_x3E__00000047023937753253550370000009835153950705777047_" style="fill:none;stroke:#496E3F;stroke-width:0.4167;stroke-linecap:round;stroke-miterlimit:10;" d="
					M120.536,541.606c0,0,5.516-4.863,20.638-9.877"/>
			</g>
			<g id="_x3C_Group_x3E__00000102525675264074606330000009173685342575310516_">
				<g id="_x3C_Path_x3E__00000056412782449342858150000008323270842880154035_">
					<path style="fill:#496E3F;" d="M401.684,518.547c0.056-0.095,0.115-0.19,0.172-0.286c-3.081-5.403-6.997-10.539-11.5-15.299
						c-8.356-8.831-18.673-16.42-29.73-23.117c-9.072-5.494-18.677-10.42-28.691-14.714c-0.379-0.163-0.755,0.25-0.558,0.612
						c3.336,6.117,5.07,9.867,7.628,14.941c1.371,2.719,2.404,5.502,3.228,8.325c0.048,0.166,0.19,0.287,0.361,0.31
						c2.745,0.355,5.502,0.633,8.265,0.829c0.512,0.036,0.545,0.77,0.039,0.856c-2.448,0.413-4.895,0.825-7.343,1.237
						c-0.245,0.041-0.403,0.279-0.347,0.522c1.759,7.609,2.396,15.439,4.224,23.074c0.048,0.199,0.229,0.341,0.435,0.34
						c1.034-0.009,2.067-0.034,3.099-0.079c2.722-0.117,5.5-0.352,8.176,0.083c0.374,0.061,0.485,0.557,0.18,0.782
						c-2.94,2.175-6.043,4.211-9.282,6.102c-0.186,0.109-0.268,0.336-0.188,0.536c7.332,18.421,26.618,36.433,48.066,45.054
						c0.136,0.055,0.294,0.039,0.416-0.042c7.231-4.78,10.085-12.674,10.722-20.251c0.44-5.23,0.003-10.53-1.296-15.716
						c-0.62-2.476-1.438-4.919-2.429-7.322c-0.099-0.24-0.386-0.341-0.614-0.217c-2.273,1.237-4.561,2.458-6.872,3.652
						c-0.346,0.179-0.745-0.156-0.622-0.525C398.332,524.898,399.827,521.65,401.684,518.547z"/>
				</g>
				
					<path id="_x3C_Path_x3E__00000104702655067605243950000016669461949408842905_" style="fill:none;stroke:#879D59;stroke-width:0.5;stroke-linecap:round;stroke-miterlimit:10;" d="
					M398.571,566.702c0,0-12.568-50.237-44.669-82.751"/>
				
					<path id="_x3C_Path_x3E__00000060008897167245965310000011407121593348134335_" style="fill:none;stroke:#879D59;stroke-width:0.5;stroke-linecap:round;stroke-miterlimit:10;" d="
					M377.06,515.119c0,0-2.927-6.249-19.465-12.965"/>
				
					<path id="_x3C_Path_x3E__00000102512830912575902250000006042596302781956759_" style="fill:none;stroke:#879D59;stroke-width:0.5;stroke-linecap:round;stroke-miterlimit:10;" d="
					M385.776,533.315c0,0,6.541-9.63,4.465-21.831"/>
				
					<path id="_x3C_Path_x3E__00000078765285326261607990000000003694909564996743_" style="fill:none;stroke:#496E3F;stroke-width:0.5;stroke-linecap:round;stroke-miterlimit:10;" d="
					M392.868,549.306c0,0-5.279-4.731-19.815-9.682"/>
			</g>
			<g id="_x3C_Group_x3E__00000054954788770800008270000013967386002890080146_">
				<g id="_x3C_Path_x3E__00000001662989645075307320000016776129935173587076_">
					<path style="fill:#496E3F;" d="M527.031,444.592c0.063-0.09,0.128-0.182,0.192-0.272c-2.685-5.61-6.221-11.015-10.37-16.086
						c-7.699-9.409-17.444-17.721-27.991-25.195c-8.653-6.132-17.879-11.736-27.559-16.738c-0.367-0.189-0.771,0.195-0.6,0.57
						c2.888,6.342,4.347,10.206,6.534,15.451c1.171,2.811,2.003,5.66,2.621,8.536c0.036,0.169,0.168,0.301,0.338,0.335
						c2.712,0.551,5.442,1.027,8.183,1.421c0.508,0.073,0.488,0.808-0.022,0.856c-2.471,0.235-4.942,0.471-7.413,0.706
						c-0.248,0.024-0.422,0.249-0.383,0.495c1.208,7.715,1.279,15.571,2.554,23.318c0.033,0.202,0.204,0.357,0.409,0.37
						c1.032,0.065,2.065,0.115,3.096,0.144c2.724,0.079,5.512,0.045,8.149,0.671c0.368,0.087,0.443,0.591,0.124,0.793
						c-3.089,1.958-6.33,3.765-9.697,5.419c-0.193,0.095-0.291,0.316-0.226,0.521c5.989,18.901,23.93,38.253,44.702,48.394
						c0.132,0.064,0.29,0.059,0.417-0.012c7.556-4.248,10.971-11.916,12.151-19.428c0.815-5.185,0.76-10.502-0.162-15.768
						c-0.44-2.514-1.081-5.01-1.896-7.477c-0.081-0.246-0.36-0.367-0.596-0.26c-2.356,1.071-4.726,2.124-7.117,3.148
						c-0.358,0.153-0.732-0.209-0.583-0.569C523.231,450.685,524.956,447.554,527.031,444.592z"/>
				</g>
				
					<path id="_x3C_Path_x3E__00000089563764635714994520000017334280940988346242_" style="fill:none;stroke:#879D59;stroke-width:0.5;stroke-linecap:round;stroke-miterlimit:10;" d="
					M520.464,492.399c0,0-8.923-51.011-38.604-85.748"/>
				
					<path id="_x3C_Path_x3E__00000152975971209784557620000005801798403952358292_" style="fill:none;stroke:#879D59;stroke-width:0.5;stroke-linecap:round;stroke-miterlimit:10;" d="
					M502.717,439.403c0,0-2.47-6.443-18.482-14.331"/>
				
					<path id="_x3C_Path_x3E__00000036954684203395308090000011357095877334556071_" style="fill:none;stroke:#879D59;stroke-width:0.5;stroke-linecap:round;stroke-miterlimit:10;" d="
					M510.103,458.179c0,0,7.217-9.135,6.023-21.453"/>
				
					<path id="_x3C_Path_x3E__00000055696414330504576360000017435874108796704915_" style="fill:none;stroke:#496E3F;stroke-width:0.5;stroke-linecap:round;stroke-miterlimit:10;" d="
					M516.026,474.637c0,0-4.925-5.098-19.068-11.082"/>
			</g>
			<g id="_x3C_Group_x3E__00000019678424690673615020000004668923363157704337_">
				<g id="_x3C_Path_x3E__00000017489604994004883260000004800753020261298574_">
					<path style="fill:#879D59;" d="M516.711,484.822c0.058-0.124,0.119-0.25,0.178-0.375c-4.483-6.311-9.967-12.191-16.133-17.53
						c-11.44-9.907-25.156-18.034-39.679-24.964c-12.006-5.729-24.611-10.676-37.651-14.777c-0.395-0.124-0.724,0.327-0.491,0.668
						c4.999,7.315,7.626,11.779,11.464,17.818c2.046,3.219,3.678,6.56,5.052,9.978c0.064,0.16,0.216,0.267,0.389,0.272
						c3.762,0.111,7.531,0.108,11.296-0.019c0.514-0.017,0.624,0.713,0.127,0.848c-3.303,0.901-6.606,1.802-9.909,2.702
						c-0.24,0.066-0.374,0.319-0.294,0.555c3.15,9.266,4.907,18.955,8.145,28.247c0.067,0.193,0.262,0.316,0.465,0.294
						c1.309-0.141,2.614-0.303,3.915-0.489c3.44-0.493,6.938-1.146,10.386-0.889c0.376,0.028,0.535,0.508,0.255,0.762
						c-3.448,3.139-7.128,6.117-11.003,8.926c-0.174,0.126-0.233,0.361-0.134,0.552c11.341,21.959,37.51,41.94,65.195,49.97
						c0.141,0.041,0.296,0.009,0.409-0.083c8.402-6.814,10.973-16.962,10.827-26.445c-0.101-6.532-1.296-13.043-3.545-19.306
						c-1.087-3.027-2.421-5.987-3.968-8.874c-0.122-0.228-0.418-0.301-0.632-0.155c-2.766,1.885-5.555,3.749-8.378,5.58
						c-0.326,0.212-0.758-0.082-0.674-0.461C513.285,493.268,514.756,488.975,516.711,484.822z"/>
				</g>
				
					<path id="_x3C_Path_x3E__00000078026063344777878390000017277279492149696445_" style="fill:none;stroke:#496E3F;stroke-width:0.5;stroke-linecap:round;stroke-miterlimit:10;" d="
					M518.799,544.852c0,0-21.768-60.675-65.543-96.985"/>
				
					<path id="_x3C_Path_x3E__00000074443850878820890480000013262266652873940656_" style="fill:none;stroke:#496E3F;stroke-width:0.5;stroke-linecap:round;stroke-miterlimit:10;" d="
					M485.787,483.615c0,0-4.397-7.378-25.71-13.656"/>
				
					<path id="_x3C_Path_x3E__00000176035666072012239780000007215075268447032729_" style="fill:none;stroke:#496E3F;stroke-width:0.5;stroke-linecap:round;stroke-miterlimit:10;" d="
					M498.83,505.078c0,0,6.914-12.736,2.836-27.592"/>
				
					<path id="_x3C_Path_x3E__00000043416768149041413750000011302730342259410582_" style="fill:none;stroke:#496E3F;stroke-width:0.5;stroke-linecap:round;stroke-miterlimit:10;" d="
					M509.587,524.008c0,0-7.122-5.208-25.739-9.547"/>
			</g>
			<g id="_x3C_Group_x3E__00000055690644505409624540000003559222305779457681_">
				<g id="_x3C_Path_x3E__00000169544466470945737930000013030189775516560820_">
					<path style="fill:#879D59;" d="M437.004,495.909c0.063-0.095,0.128-0.192,0.192-0.288c-2.941-5.743-6.759-11.25-11.203-16.393
						c-8.247-9.543-18.585-17.89-29.732-25.348c-9.215-6.165-19.018-11.756-29.281-16.703c-0.311-0.15-0.637,0.182-0.485,0.492
						c3.246,6.632,4.877,10.629,7.319,16.07c1.302,2.901,2.247,5.852,2.97,8.836c0.034,0.14,0.146,0.246,0.288,0.271
						c3.089,0.543,6.198,0.992,9.319,1.339c0.426,0.047,0.429,0.663,0.003,0.715c-2.832,0.347-5.664,0.694-8.497,1.041
						c-0.206,0.025-0.347,0.218-0.309,0.422c1.487,8.02,1.774,16.222,3.33,24.273c0.032,0.168,0.178,0.292,0.348,0.298
						c1.096,0.04,2.193,0.064,3.288,0.066c2.897,0.006,5.86-0.113,8.673,0.512c0.307,0.068,0.38,0.483,0.119,0.659
						c-3.22,2.175-6.613,4.19-10.145,6.043c-0.159,0.083-0.235,0.27-0.177,0.439c6.72,19.471,25.907,39.089,47.778,49.031
						c0.111,0.051,0.243,0.043,0.348-0.019c7.747-4.612,11.084-12.674,12.101-20.512c0.7-5.4,0.495-10.913-0.609-16.348
						c-0.533-2.627-1.279-5.228-2.209-7.795c-0.074-0.203-0.309-0.298-0.503-0.203c-2.508,1.223-5.031,2.426-7.579,3.598
						c-0.295,0.135-0.615-0.158-0.5-0.461C433.166,502.464,434.893,499.1,437.004,495.909z"/>
				</g>
				
					<path id="_x3C_Path_x3E__00000045580256168852163660000017724105726995434404_" style="fill:none;stroke:#496E3F;stroke-width:0.4167;stroke-linecap:round;stroke-miterlimit:10;" d="
					M431.528,545.67c0,0-10.677-52.653-42.427-87.849"/>
				
					<path id="_x3C_Path_x3E__00000103267029554067003950000017616996730322894233_" style="fill:none;stroke:#496E3F;stroke-width:0.4167;stroke-linecap:round;stroke-miterlimit:10;" d="
					M411.644,491.205c0,0-2.742-6.613-19.567-14.346"/>
				
					<path id="_x3C_Path_x3E__00000057856714559241216800000008268225494288533151_" style="fill:none;stroke:#496E3F;stroke-width:0.4167;stroke-linecap:round;stroke-miterlimit:10;" d="
					M419.828,510.471c0,0,7.229-9.675,5.647-22.417"/>
				
					<path id="_x3C_Path_x3E__00000132804483930842109790000000563779896783925151_" style="fill:none;stroke:#496E3F;stroke-width:0.4167;stroke-linecap:round;stroke-miterlimit:10;" d="
					M426.43,527.375c0,0-5.25-5.149-20.084-10.96"/>
			</g>
		</g>
	</g>
</g>
</svg>
